<svg width="13" height="13" viewBox="0 0 13 13" fill="none" xmlns="http://www.w3.org/2000/svg">
<path d="M6.51316 0.876317L4.64288 4.24282C4.55469 4.40155 4.38738 4.5 4.2058 4.5H1.20711C0.761654 4.5 0.53857 5.03857 0.853553 5.35355L3.33246 7.83246C3.4385 7.9385 3.49135 8.08654 3.47642 8.23576L3.09027 12.0973C3.05108 12.4892 3.45919 12.7704 3.81139 12.5943L6.77639 11.1118C6.91716 11.0414 7.08284 11.0414 7.22361 11.1118L10.1886 12.5943C10.5408 12.7704 10.9489 12.4892 10.9097 12.0973L10.5213 8.21278C10.5077 8.07688 10.5503 7.94134 10.6392 7.83764L12.7925 5.3254C13.0705 5.00106 12.8401 4.5 12.4129 4.5H9.32494C9.12734 4.5 8.94828 4.38363 8.86803 4.20307L7.40714 0.916069C7.23962 0.539143 6.71347 0.515748 6.51316 0.876317Z" fill="#CCCCCC"/>
</svg>
