<svg width="24" height="24" viewBox="0 0 24 24" fill="none" xmlns="http://www.w3.org/2000/svg">
<rect opacity="0.01" width="24" height="24" fill="#C4C4C4"/>
<rect opacity="0.01" x="2" y="2" width="20" height="20" fill="#E38282"/>
<path fill-rule="evenodd" clip-rule="evenodd" d="M15.8499 3.00016C16.4809 3.00016 17.1109 3.08916 17.7098 3.29016C21.4008 4.49014 22.7308 8.5401 21.6198 12.0801C20.9898 13.889 19.9598 15.54 18.6108 16.889C16.6799 18.759 14.5609 20.419 12.2799 21.849L12.0299 22L11.7699 21.839C9.48094 20.419 7.34996 18.759 5.40098 16.879C4.06099 15.53 3.03001 13.889 2.39001 12.0801C1.26002 8.5401 2.59001 4.49014 6.32097 3.26916C6.61097 3.16916 6.90996 3.09916 7.20996 3.06016H7.32996C7.61096 3.01916 7.88995 3.00016 8.16995 3.00016H8.27995C8.90994 3.01916 9.51994 3.12916 10.1109 3.33016H10.1699C10.2099 3.34916 10.2399 3.37016 10.2599 3.38916C10.4809 3.46015 10.6899 3.54015 10.8899 3.65015L11.2699 3.82015C11.3617 3.86912 11.4648 3.94395 11.5539 4.00862C11.6103 4.04959 11.6611 4.08649 11.6999 4.11015C11.7162 4.11978 11.7328 4.12946 11.7495 4.13922C11.8353 4.18927 11.9246 4.24141 11.9999 4.29915C13.1109 3.45015 14.4599 2.99016 15.8499 3.00016ZM18.5088 10.199C18.9188 10.188 19.2688 9.85902 19.2988 9.43803V9.31903C19.3288 7.91804 18.4798 6.64906 17.1888 6.15906C16.7788 6.01806 16.3288 6.23906 16.1788 6.65906C16.0388 7.07905 16.2588 7.53905 16.6788 7.68805C17.3198 7.92804 17.7488 8.55904 17.7488 9.25803V9.28903C17.7298 9.51803 17.7988 9.73902 17.9388 9.90902C18.0788 10.079 18.2888 10.178 18.5088 10.199Z" fill="#808080"/>
</svg>
