<svg width="19" height="18" viewBox="0 0 19 18" fill="none" xmlns="http://www.w3.org/2000/svg">
<path fill-rule="evenodd" clip-rule="evenodd" d="M14.1307 0.3125C15.3879 0.3125 16.5972 0.809375 17.4869 1.70094C18.3776 2.59063 18.8754 3.79063 18.8754 5.04688V12.4531C18.8754 15.0687 16.7472 17.1875 14.1307 17.1875H4.86912C2.25255 17.1875 0.125366 15.0687 0.125366 12.4531V5.04688C0.125366 2.43125 2.24318 0.3125 4.86912 0.3125H14.1307ZM15.6221 6.44378L15.6971 6.36878C15.9211 6.09691 15.9211 5.70316 15.6867 5.43128C15.5564 5.2916 15.3774 5.20628 15.1908 5.18753C14.9939 5.17722 14.8064 5.24378 14.6649 5.37503L10.4377 8.75004C9.89393 9.20097 9.11487 9.20097 8.56268 8.75004L4.34393 5.37503C4.05237 5.15941 3.64924 5.18753 3.40643 5.44066C3.1533 5.69378 3.12518 6.09691 3.33987 6.37816L3.46268 6.50003L7.7283 9.82816C8.2533 10.2407 8.88987 10.4657 9.55643 10.4657C10.2211 10.4657 10.8689 10.2407 11.393 9.82816L15.6221 6.44378Z" fill="black"/>
</svg>
