<svg width="17" height="20" viewBox="0 0 17 20" fill="none" xmlns="http://www.w3.org/2000/svg">
<path fill-rule="evenodd" clip-rule="evenodd" d="M0.53125 8.6729C0.53125 4.36052 4.13489 0.875 8.49386 0.875C12.8651 0.875 16.4688 4.36052 16.4688 8.6729C16.4688 10.846 15.6784 12.8634 14.3777 14.5734C12.9426 16.4595 11.1739 18.1029 9.18301 19.3929C8.72736 19.691 8.31613 19.7135 7.81605 19.3929C5.81382 18.1029 4.04508 16.4595 2.62234 14.5734C1.32061 12.8634 0.53125 10.846 0.53125 8.6729ZM5.86951 8.91573C5.86951 10.3604 7.04835 11.4966 8.49377 11.4966C9.94015 11.4966 11.1303 10.3604 11.1303 8.91573C11.1303 7.48233 9.94015 6.2908 8.49377 6.2908C7.04835 6.2908 5.86951 7.48233 5.86951 8.91573Z" fill="black"/>
</svg>
