<svg width="24" height="23" viewBox="0 0 24 23" fill="none" xmlns="http://www.w3.org/2000/svg">
<path fill-rule="evenodd" clip-rule="evenodd" d="M16.5424 3.3125C17.8519 3.3125 19.1117 3.80937 20.0384 4.70094C20.9662 5.59063 21.4847 6.79063 21.4847 8.04688V15.4531C21.4847 18.0687 19.2679 20.1875 16.5424 20.1875H6.8949C4.16931 20.1875 1.95349 18.0687 1.95349 15.4531V8.04688C1.95349 5.43125 4.15955 3.3125 6.8949 3.3125H16.5424ZM18.0959 9.44378L18.174 9.36878C18.4074 9.09691 18.4074 8.70316 18.1633 8.43128C18.0275 8.2916 17.841 8.20628 17.6467 8.18753C17.4416 8.17722 17.2463 8.24378 17.0988 8.37503L12.6955 11.75C12.1291 12.201 11.3176 12.201 10.7424 11.75L6.34783 8.37503C6.04412 8.15941 5.62419 8.18753 5.37126 8.44066C5.10759 8.69378 5.0783 9.09691 5.30193 9.37816L5.42986 9.50003L9.87322 12.8282C10.4201 13.2407 11.0832 13.4657 11.7775 13.4657C12.4699 13.4657 13.1447 13.2407 13.6906 12.8282L18.0959 9.44378Z" fill="black"/>
</svg>
