<svg width="17" height="20" viewBox="0 0 17 20" fill="none" xmlns="http://www.w3.org/2000/svg">
<path fill-rule="evenodd" clip-rule="evenodd" d="M0.125 8.2979C0.125 3.98552 3.87879 0.5 8.41938 0.5C12.9728 0.5 16.7266 3.98552 16.7266 8.2979C16.7266 10.471 15.9033 12.4884 14.5483 14.1984C13.0535 16.0845 11.2111 17.7279 9.13725 19.0179C8.66261 19.316 8.23425 19.3385 7.71333 19.0179C5.62767 17.7279 3.78524 16.0845 2.30322 14.1984C0.94725 12.4884 0.125 10.471 0.125 8.2979ZM5.68581 8.54094C5.68581 9.98558 6.91377 11.1218 8.41942 11.1218C9.92606 11.1218 11.1658 9.98558 11.1658 8.54094C11.1658 7.10754 9.92606 5.91602 8.41942 5.91602C6.91377 5.91602 5.68581 7.10754 5.68581 8.54094Z" fill="black"/>
</svg>
