  <svg
                class="car"
                width="80"
                height="30"
                viewBox="0 0 80 30"
                xmlns="http://www.w3.org/2000/svg"
              >
              <g>
                <path
                    d="M15.3164 24.5727C15.6162 24.5727 15.9162 24.4583 16.145 24.2296L17.9162 22.4582C18.3739 22.0005 18.3739 21.2587 17.9162 20.801C17.4586 20.3433 16.7165 20.3433 16.259 20.801L14.4878 22.5724C14.0301 23.0301 14.0301 23.7719 14.4878 24.2296C14.7167 24.4583 15.0165 24.5727 15.3164 24.5727Z"
                    fill="white"
                  />
                  <path
                    d="M65.1075 24.2294C65.3363 24.4581 65.6363 24.5725 65.9361 24.5725C66.236 24.5725 66.536 24.4581 66.7647 24.2294C67.2224 23.7717 67.2224 23.0297 66.7647 22.5722L64.9935 20.8008C64.5358 20.3431 63.7938 20.3431 63.3363 20.8008C62.8786 21.2584 62.8786 22.0004 63.3363 22.4579L65.1075 24.2294Z"
                    fill="white"
                  />
                  <path
                    d="M76.4661 12.2166C69.8473 9.14288 59.8914 8.84882 57.8811 8.82116L48.387 2.77944C45.5816 0.99413 42.3413 0.0505371 39.0161 0.0505371H27.8569C24.9678 0.0505371 22.0748 0.733506 19.4908 2.02554L13.5466 4.99757C11.7558 5.89304 9.84031 6.47288 7.85344 6.72132L3.22094 7.30038C1.38469 7.52976 0 9.09835 0 10.9488V18.4284C0 20.6176 1.47016 22.5666 3.57516 23.168L9.11125 24.7498C10.0622 27.7605 12.8809 29.9496 16.202 29.9496C18.9644 29.9496 21.3778 28.4341 22.6595 26.1919H58.5928C59.8745 28.4341 62.288 29.9496 65.0503 29.9496C69.1497 29.9496 72.4848 26.6144 72.4848 22.5151C72.4848 18.4157 69.1497 15.0805 65.0503 15.0805C60.9509 15.0805 57.6158 18.4155 57.6158 22.5151C57.6158 22.9704 57.6591 23.4154 57.7378 23.8482H23.5144C23.5931 23.4152 23.6364 22.9702 23.6364 22.5151C23.6364 18.4157 20.3013 15.0805 16.2019 15.0805C12.2028 15.0805 8.93266 18.2549 8.775 22.216L4.21891 20.9143C3.115 20.599 2.34375 19.5768 2.34375 18.4284V14.9194H3.67687C4.32406 14.9194 4.84875 14.3948 4.84875 13.7476C4.84875 13.1004 4.32406 12.5757 3.67687 12.5757H2.34375V10.9488C2.34375 10.2779 2.84578 9.70913 3.51156 9.62601L8.14406 9.04694C10.3953 8.76554 12.5655 8.10835 14.5947 7.09382L15.1292 6.82663L17.2969 8.98429C18.7011 10.3885 20.5681 11.1619 22.5539 11.1619H24.9698C25.617 11.1619 26.1417 10.6373 26.1417 9.99007C26.1417 9.34288 25.617 8.81819 24.9698 8.81819H22.5539C22.3491 8.81819 22.1466 8.80476 21.9462 8.78101L23.2411 3.06163C24.7383 2.62226 26.2983 2.39413 27.857 2.39413H33.8183V8.81804H29.9802C29.333 8.81804 28.8083 9.34272 28.8083 9.98991C28.8083 10.6371 29.333 11.1618 29.9802 11.1618H57.5353C57.6464 11.1618 68.7175 11.2021 75.4791 14.3421C75.8758 14.5263 76.2292 14.7787 76.5312 15.0805H75.0708C74.4236 15.0805 73.8989 15.6052 73.8989 16.2524C73.8989 16.8996 74.4236 17.4243 75.0708 17.4243H77.6352C77.6478 17.5512 77.6564 17.6787 77.6564 17.808V21.9662C77.6564 23.1271 77.1455 23.8482 76.3233 23.8482C75.6761 23.8482 75.1514 24.3729 75.1514 25.0201C75.1514 25.6673 75.6761 26.1919 76.3233 26.1919C77.3611 26.1919 78.3041 25.7649 78.9787 24.9894C79.6469 24.2212 80.0002 23.1759 80.0002 21.9662V17.808C80 15.4084 78.6128 13.2135 76.4661 12.2166ZM65.0503 17.4244C67.8573 17.4244 70.1411 19.7082 70.1411 22.5152C70.1411 25.3223 67.8573 27.606 65.0503 27.606C62.2433 27.606 59.9595 25.3223 59.9595 22.5152C59.9595 19.7082 62.2433 17.4244 65.0503 17.4244ZM16.202 17.4244C19.0091 17.4244 21.2928 19.7082 21.2928 22.5152C21.2928 25.3223 19.0091 27.606 16.202 27.606C13.395 27.606 11.1112 25.3223 11.1112 22.5152C11.1112 19.7082 13.3952 17.4244 16.202 17.4244ZM19.728 7.96366C19.4528 7.77929 19.1936 7.56663 18.9541 7.3271L17.3455 5.71851L20.5389 4.12179C20.5608 4.11085 20.5831 4.10069 20.605 4.08991L19.728 7.96366ZM36.1619 2.39413H39.0161C41.8947 2.39413 44.7 3.21116 47.1287 4.75663L53.5111 8.81819H36.1619V2.39413Z"
                    fill="white"
                  />
                  <path
                    d="M27.4749 18.8381C26.8277 18.8381 26.303 19.3628 26.303 20.01C26.303 20.6572 26.8277 21.1819 27.4749 21.1819H53.7777C54.4249 21.1819 54.9495 20.6572 54.9495 20.01C54.9495 19.3628 54.4249 18.8381 53.7777 18.8381H27.4749Z"
                    fill="white"
                  />
                </g>
              </svg>