<svg width="80" height="80" viewBox="0 0 80 80" fill="none" xmlns="http://www.w3.org/2000/svg">
<g clip-path="url(#clip0_96_367)">
<path d="M75.8279 39.721C74.4748 38.6792 72.9831 37.8918 71.4023 37.3706C72.7701 37.0489 74.1831 36.7871 75.4825 36.6016C77.0749 36.3745 78.0826 34.7668 77.5851 33.2318C75.881 27.9822 75.4147 25.6562 72.8708 22.7375L66.8869 15.8729C66.0697 14.9348 64.7056 14.7266 63.6448 15.3773L61.7765 16.5247C60.7096 17.1796 60.2762 18.537 60.7688 19.6827C61.2552 20.8155 61.9352 22.9035 61.4225 24.8645L61.0892 23.8428C60.8634 23.1501 60.405 22.5464 59.7996 22.1424L55.8439 19.5032C54.3491 18.5059 52.321 18.9106 51.323 20.4059C50.3233 21.9043 50.7267 23.927 52.2257 24.9268L54.636 26.5345C54.5579 26.5253 54.4798 26.5168 54.401 26.5113C49.1069 23.0329 45.8067 22.4408 43.7456 21.933C38.7126 20.6934 33.9531 19.5228 27.8502 27.4933C26.0503 27.2077 20.9515 26.2299 17.5518 23.9032C15.9466 22.8046 13.8922 22.8394 12.3773 23.8807L10.0634 21.7286C8.16342 19.9616 6.30857 20.2308 3.69811 20.2308C1.71081 20.2308 0.623166 22.5452 1.8872 24.0754L6.98728 30.249C8.19516 31.7114 10.1086 32.4829 12.0373 32.2296L19.2742 38.1994C20.639 39.3255 22.3424 39.8553 24.0496 39.7467L28.0095 39.4964L29.0319 41.0052L24.284 43.2721C21.7193 39.9682 17.7856 38.0231 13.5687 38.0231C6.08701 38.0224 0 44.1095 0 51.5911C0 59.0728 6.08701 65.1592 13.5687 65.1592C20.4351 65.1592 26.1474 60.0573 27.0183 53.3624L27.0659 53.3599L31.7974 60.1555C32.1617 60.6792 32.7605 60.9917 33.3977 60.9917H41.3115C41.9591 60.9917 42.4833 60.4668 42.4833 59.8198C42.4833 59.1723 41.9591 58.648 41.3115 58.648H33.6034L29.1106 52.1948H35.3697C38.4465 55.8855 44.4249 54.1729 45.1512 49.486C47.8166 50.996 51.0356 51.9366 54.1367 51.8389C53.6003 54.013 53.1584 56.4257 52.8794 58.648H46.7808C46.1339 58.648 45.6089 59.1729 45.6089 59.8198C45.6089 60.4668 46.1332 60.9917 46.7808 60.9917H53.2279C54.2161 60.9917 55.0486 60.252 55.1646 59.2705C55.1688 59.2345 55.1743 59.1973 55.1786 59.1613C56.03 60.4241 57.0902 61.5496 58.314 62.4645C67.2086 69.1149 80.0003 62.7538 80.0003 51.5911C80.0003 48.0712 78.6471 44.7351 76.2448 42.2223C76.7892 41.3971 76.5945 40.3106 75.8279 39.721ZM37.7623 40.6256L39.21 37.5873C39.8308 36.2842 40.8806 35.2057 42.166 34.5502C43.123 34.0625 53.1144 28.9386 53.9842 28.8544C54.6391 28.7915 55.3135 29.1303 55.8524 29.5081C54.3675 30.1557 45.5815 34.1772 43.6735 35.719C42.086 37.0019 40.9331 38.6999 40.3123 40.5816C39.4621 40.4541 38.5667 40.4773 37.7623 40.6256ZM27.9229 35.1898C29.5708 34.8584 29.0075 34.9719 31.8865 34.3927L35.9776 38.9221C35.4656 39.9975 34.9608 41.0565 34.4566 42.1154C34.0508 42.431 33.6321 42.8393 33.3379 43.1823C31.8285 40.9546 29.6654 37.7612 27.9229 35.1898ZM58.4428 30.9467C58.4428 30.9467 58.4434 30.9467 58.4428 30.9467C63.306 28.9093 64.9003 24.8798 63.4153 20.094L66.5775 24.7638C67.3581 25.9174 68.6008 26.6565 69.9869 26.792L72.9776 27.085C73.5007 28.1421 73.6728 28.7714 74.2404 30.52C71.6489 30.7617 69.7873 32.0648 69.7873 33.7384C69.7873 34.2792 69.9729 34.7778 70.3128 35.2167C66.7502 36.0992 62.7329 37.5757 60.0022 40.0042C58.0131 37.5329 54.7263 35.3833 50.8854 34.4202C53.2804 33.2391 56.0294 31.9519 58.4428 30.9467ZM65.12 17.4128C71.9681 25.2686 71.0123 24.1639 71.3468 24.5703C70.2115 24.4593 69.2337 24.5069 68.5178 23.4497L64.5414 17.5776L64.8716 17.3749C64.9515 17.3255 65.0565 17.3395 65.12 17.4128ZM75.1517 34.2816C74.7073 34.3445 74.2233 34.4202 73.7113 34.5081C72.6871 34.2859 72.222 33.894 72.1384 33.7378C72.2745 33.4705 73.2688 32.8546 74.9881 32.8241L75.3555 33.9551C75.4044 34.1046 75.3073 34.259 75.1517 34.2816ZM63.5697 44.9145C63.1766 43.7097 63.4299 44.4867 62.3343 41.1279C62.8141 40.7721 63.3457 40.4297 63.9274 40.1031C64.7025 42.4792 66.9187 49.2748 67.5815 51.3073C67.7378 51.7877 67.4765 52.3046 66.9944 52.4621C66.5067 52.6208 65.9952 52.3528 65.8396 51.8749L63.5697 44.9145ZM67.396 43.1799L66.0587 39.079L66.3004 38.974C68.7955 38.8836 71.3803 39.5428 73.6484 41.0425L67.396 43.1799ZM57.3435 25.8252C57.2623 25.575 57.0988 25.3601 56.8797 25.2143L53.5264 22.9767C53.1046 22.6954 52.9923 22.1271 53.2725 21.7066C53.5533 21.2861 54.1233 21.1725 54.5432 21.4527L58.4983 24.0918C58.6686 24.2054 58.7974 24.375 58.8608 24.5697L59.7935 27.4286C59.3272 27.8339 58.8071 28.1684 58.2523 28.4522C58.2279 28.4284 58.2035 28.4058 58.1773 28.3814L57.3435 25.8252ZM43.1846 24.2084C45.2061 24.7065 47.155 24.9726 51.3346 27.381C48.6509 28.6298 43.7419 31.1163 41.1015 32.4622C39.3584 33.3508 37.935 34.8126 37.094 36.579L37.0683 36.6327L29.8894 28.6853C34.9535 22.1808 38.4331 23.0384 43.1846 24.2084ZM16.228 25.8374C20.2673 28.6017 26.1266 29.6149 27.7886 29.856C28.5912 30.7446 28.0443 30.1392 30.0585 32.3694L25.7335 33.2397C24.6764 33.4522 23.5943 33.1818 22.7617 32.4976L14.2864 25.531C14.9175 25.3369 15.6341 25.4303 16.228 25.8374ZM8.79452 28.7561L3.69139 22.5855C3.69139 22.5818 3.69444 22.5751 3.69078 22.5745H3.69872C6.2927 22.5745 7.31931 22.3768 8.46737 23.4443C12.5 27.1949 10.6756 25.5963 14.7405 28.938C13.0316 29.5154 13.5162 29.3518 12.0379 29.8517C10.8447 30.1294 9.57577 29.7022 8.79452 28.7561ZM20.7659 36.391L14.7332 31.4148C15.5407 31.142 15.0518 31.3068 16.8731 30.6915L21.2737 34.3085C22.4114 35.2435 23.8793 35.7385 25.3991 35.6433C26.1669 36.7761 25.9319 36.43 26.4837 37.2443C23.9464 37.4048 22.4206 37.7563 20.7659 36.391ZM11.9824 49.1448C11.0937 49.569 10.5188 50.4797 10.5188 51.4648C10.5188 52.9272 11.7449 54.1039 13.2147 54.0325L19.4842 53.7286C18.6041 56.1712 16.2658 57.8808 13.5687 57.8808C10.1007 57.8808 7.27902 55.0591 7.27902 51.5911C7.27902 46.4202 13.2324 43.4411 17.362 46.5765L11.9824 49.1448ZM24.6355 53.4783C23.7371 58.8079 19.1045 62.8154 13.5687 62.8154C7.37912 62.8154 2.34374 57.7807 2.34374 51.5911C2.34374 45.4016 7.37912 40.3668 13.5687 40.3668C16.8835 40.3668 19.9877 41.8194 22.1093 44.3103L19.6636 45.4779C14.2803 40.0982 4.93467 43.8891 4.93467 51.5911C4.93467 56.3518 8.80795 60.2245 13.5687 60.2245C17.5994 60.2245 21.0473 57.4425 21.9634 53.6083C23.0443 53.5552 22.4651 53.5833 24.6355 53.4783ZM28.358 49.8504C27.556 49.8504 26.8609 50.3368 26.5624 51.0381L13.1011 51.6918C12.9718 51.6998 12.8631 51.5948 12.8631 51.4648C12.8631 51.3781 12.9138 51.2975 12.9919 51.2603C13.3966 51.0674 29.8235 43.2245 30.3612 42.9681C31.2157 44.2291 30.996 43.905 32.0073 45.3973C31.4458 46.831 31.3494 48.4204 31.6661 49.8504H28.358ZM34.0959 49.8504C32.8893 46.1938 35.8824 42.3974 39.8296 42.8851C39.8009 43.1805 39.7807 43.5754 39.7807 43.8891C39.7807 44.6539 40.2287 45.3521 40.9288 45.6652C40.9331 45.6677 40.9373 45.6701 40.9422 45.672C42.2954 46.2658 43.0882 47.7362 42.8233 49.2077C42.3637 51.7504 39.0648 52.9388 37.0506 50.5505C36.6759 50.1061 36.1382 49.8504 35.5596 49.8504H34.0959ZM44.7752 46.4556C44.2442 45.2038 43.2512 44.1864 42.1287 43.6401C42.1806 41.9452 42.7617 40.2942 43.7791 38.9532C44.9742 37.3749 46.2712 36.7694 47.2453 36.2634C51.406 36.3599 56.0404 38.5913 58.3939 41.7486C56.7387 43.9386 55.5869 46.8249 54.791 49.4512C51.3713 49.793 47.5041 48.4735 44.7752 46.4556ZM66.431 62.8154C61.5836 62.8154 57.3472 59.7686 55.8006 55.2038C56.5495 51.2981 57.9826 46.0089 60.4539 42.9199L61.074 44.8217C54.6964 49.8547 58.2566 60.2245 66.431 60.2245C69.7965 60.2245 72.8775 58.2464 74.2813 55.1849C74.5511 54.5965 74.2923 53.9007 73.7045 53.6309C73.1162 53.3611 72.4204 53.6193 72.1506 54.2077C71.1276 56.4391 68.8828 57.8808 66.431 57.8808C62.963 57.8808 60.142 55.0591 60.142 51.5911C60.142 49.9511 60.7694 48.4155 61.8699 47.2613L63.6112 52.6019C64.1727 54.3224 66.0129 55.2471 67.7213 54.6905C69.4345 54.1314 70.3684 52.293 69.8099 50.5804L68.1693 45.5505C70.145 46.1175 71.738 47.6251 72.3978 49.5983C72.6029 50.2123 73.2669 50.5438 73.8803 50.3387C74.4943 50.133 74.8258 49.4695 74.6207 48.8555C73.9957 46.9848 72.7597 45.4174 71.1612 44.3695L74.0762 43.3734C81.4786 50.2575 76.6397 62.8154 66.431 62.8154Z" fill="white"/>
</g>
<defs>
<clipPath id="clip0_96_367">
<rect width="80" height="80" fill="white"/>
</clipPath>
</defs>
</svg>
