<svg width="80" height="68" viewBox="0 0 80 68" fill="none" xmlns="http://www.w3.org/2000/svg">
<path d="M14.0633 46.2512C13.3416 46.2512 12.6293 46.359 11.946 46.5715C11.3281 46.7639 10.9829 47.4207 11.1751 48.0387C11.3674 48.6566 12.024 49.002 12.6423 48.8096C13.0999 48.6671 13.578 48.5949 14.0633 48.5949C16.6977 48.5949 18.8409 50.7382 18.8409 53.3725C18.8409 56.0068 16.6977 58.1501 14.0633 58.1501C11.429 58.1501 9.28576 56.0068 9.28576 53.3725C9.28576 52.8255 9.37716 52.2896 9.55732 51.7797C9.77294 51.1696 9.4531 50.5001 8.84295 50.2843C8.23297 50.0688 7.56329 50.3885 7.34751 50.9986C7.07845 51.76 6.94189 52.5586 6.94189 53.3725C6.94189 57.2992 10.1365 60.4938 14.0632 60.4938C17.9898 60.4938 21.1845 57.2992 21.1845 53.3725C21.1846 49.4459 17.99 46.2512 14.0633 46.2512Z" fill="white"/>
<path d="M17.2183 53.3725C17.2183 51.6328 15.803 50.2175 14.0633 50.2175C12.3236 50.2175 10.9083 51.6328 10.9083 53.3725C10.9083 55.1122 12.3236 56.5275 14.0633 56.5275C15.803 56.5275 17.2183 55.1122 17.2183 53.3725ZM13.2519 53.3725C13.2519 52.9252 13.6158 52.5613 14.0632 52.5613C14.5105 52.5613 14.8744 52.9252 14.8744 53.3725C14.8744 53.8199 14.5105 54.1838 14.0632 54.1838C13.6158 54.1838 13.2519 53.8199 13.2519 53.3725Z" fill="white"/>
<path d="M65.9374 46.2512C62.0108 46.2512 58.8162 49.4459 58.8162 53.3725C58.8162 57.2992 62.0108 60.4938 65.9374 60.4938C69.8641 60.4938 73.0587 57.2992 73.0587 53.3725C73.0587 49.4459 69.8641 46.2512 65.9374 46.2512ZM65.9374 58.1501C63.3031 58.1501 61.1599 56.0068 61.1599 53.3725C61.1599 50.7382 63.3031 48.5949 65.9374 48.5949C68.5718 48.5949 70.715 50.7382 70.715 53.3725C70.715 56.0068 68.5718 58.1501 65.9374 58.1501Z" fill="white"/>
<path d="M65.9375 50.2173C64.1978 50.2173 62.7825 51.6326 62.7825 53.3723C62.7825 55.112 64.1979 56.5273 65.9375 56.5273C67.677 56.5273 69.0925 55.112 69.0925 53.3723C69.0925 51.6326 67.6772 50.2173 65.9375 50.2173ZM65.9375 54.1837C65.4901 54.1837 65.1262 53.8198 65.1262 53.3724C65.1262 52.9251 65.4901 52.5612 65.9375 52.5612C66.3848 52.5612 66.7487 52.9251 66.7487 53.3724C66.7487 53.8198 66.3848 54.1837 65.9375 54.1837Z" fill="white"/>
<path d="M72.996 36.8103H78.0466C79.1236 36.8103 79.9996 35.9342 79.9996 34.8572V31.7366C79.9996 31.2129 79.7951 30.7212 79.4237 30.3518C79.0525 29.9824 78.563 29.7856 78.0356 29.7835L77.0824 29.7888V26.1166C77.0824 24.7505 76.4239 23.4538 75.3213 22.6477L65.1513 15.2138C64.0888 14.4372 62.8645 13.9657 61.5725 13.8276L59.7588 9.45327C59.2417 8.20657 58.0357 7.40096 56.686 7.40096C56.5283 7.40096 56.3744 7.41581 56.2226 7.43706L54.2932 4.71804C53.4889 3.58462 52.1789 2.90792 50.7889 2.90792H49.5096V2.82979C49.5096 1.5806 48.4932 0.564209 47.244 0.564209H41.9316C39.9932 0.564209 38.416 2.14121 38.416 4.07977C38.416 6.01833 39.993 7.59534 41.9316 7.59534H47.244C48.4932 7.59534 49.5096 6.57895 49.5096 5.32975V5.25163H50.7889C51.4208 5.25163 52.0161 5.55928 52.3819 6.07442L54.1553 8.5736C53.6601 9.15453 53.3593 9.90592 53.3593 10.7272C53.3578 12.931 53.364 17.3088 53.3625 19.4642C53.3625 19.8646 53.329 20.266 53.2629 20.6574C53.1553 21.2956 53.5853 21.9002 54.2234 22.0079C54.8624 22.1155 55.4662 21.6854 55.574 21.0473C55.6618 20.5275 55.7062 19.995 55.7062 19.4642V16.1272C55.7043 16.1274 60.7303 16.1269 60.7755 16.1274C61.8589 16.1282 62.8937 16.4663 63.7684 17.1056L72.3582 23.3844H65.5818C64.9344 23.3844 64.4099 23.9091 64.4099 24.5563V26.2677C64.4099 27.6172 64.8698 28.8606 65.6391 29.8521L64.7066 29.8573C55.7476 29.9071 47.7302 35.2822 44.2812 43.5508L42.1723 48.6065H37.8426L33.4556 37.5709C32.5933 35.4016 31.168 33.5914 29.3844 32.2787H40.3691C42.0013 32.2787 43.6117 31.7294 44.9035 30.7323C45.5123 30.2624 45.9088 29.6214 46.0604 28.92H46.2502C48.6297 28.92 50.9039 28.0328 52.6536 26.4219C53.1297 25.9834 53.1603 25.2422 52.722 24.766C52.2837 24.29 51.5423 24.2594 51.0661 24.6975C49.7503 25.9089 48.0401 26.5761 46.2502 26.5761H45.6446C45.0826 25.6683 44.1011 25.111 42.9867 25.111H26.2937C25.6465 25.111 25.1219 25.6356 25.1219 26.2828C25.1219 26.93 25.6465 27.4547 26.2937 27.4547H42.9867C43.4992 27.4547 43.6828 27.8306 43.7379 27.9922C43.7931 28.1537 43.8775 28.5634 43.4715 28.8767C42.5877 29.559 41.4858 29.9346 40.3691 29.9346H22.203H22.1882H9.30402L9.35277 21.8607C9.35402 21.6465 9.52933 21.4724 9.74339 21.4724H11.7532C11.9252 21.4724 12.0793 21.5876 12.1279 21.7526C13.1177 25.1099 16.2536 27.4547 19.7538 27.4547H20.8251C21.4722 27.4547 21.9969 26.93 21.9969 26.2828C21.9969 25.6356 21.4722 25.111 20.8251 25.111H19.7538C17.2854 25.111 15.0739 23.4574 14.376 21.0899C14.0357 19.9351 12.9571 19.1287 11.7532 19.1287H9.74339C8.24482 19.1287 7.01812 20.3479 7.00906 21.8466L6.96016 29.9348H1.95415C0.877137 29.9348 0.00105894 30.8109 0.00105894 31.8879V35.0128C0.00105894 36.0898 0.877137 36.9659 1.95415 36.9659H3.08835C2.73851 39.2434 2.98632 41.5982 3.81349 43.7553C1.48884 46.1915 -0.00753466 49.7457 0.00105894 53.3725C-0.0951894 60.9503 6.38282 67.4932 14.0633 67.4347C21.6413 67.531 28.1843 61.0525 28.1256 53.3725C28.1256 52.5644 28.056 51.7724 27.9246 51.0011L30.7216 49.773L32.2117 53.4447C32.7525 54.7772 34.0312 55.6381 35.4692 55.6381H44.5315C45.9696 55.6381 47.2484 54.777 47.7885 53.4458L49.2808 49.7802L52.0753 51.0072C51.9444 51.7766 51.8753 52.5666 51.8753 53.3725C51.7791 60.9503 58.2571 67.4932 65.9376 67.4347C73.5155 67.531 80.0585 61.0527 79.9998 53.3725C80.0159 47.8024 76.6313 42.6733 71.4773 40.4483L72.996 36.8103ZM47.166 5.25163H41.9317C41.2856 5.25163 40.76 4.72601 40.76 4.07977C40.76 3.43353 41.2856 2.90792 41.9317 2.90792H47.166V5.25163ZM55.7032 13.7837V10.7272C55.7032 10.1853 56.144 9.74436 56.686 9.74436C57.0847 9.74436 57.4411 9.98232 57.594 10.3506L59.0174 13.7835H55.7032V13.7837ZM70.269 29.8242C68.3306 29.8242 66.7535 28.2064 66.7535 26.268V25.7285H74.6965C74.7224 25.8555 74.7386 25.985 74.7386 26.1166V29.8243H70.269V29.8242ZM20.7377 62.9964L19.8954 61.4767C19.5817 60.9106 18.8684 60.7061 18.3023 61.02C17.7362 61.3338 17.5317 62.047 17.8456 62.6131L18.6903 64.137C17.6118 64.6023 16.4509 64.911 15.2352 65.0323V63.2881C15.2352 62.6409 14.7105 62.1162 14.0633 62.1162C13.4161 62.1162 12.8915 62.6409 12.8915 63.2881V65.0323C11.5344 64.897 10.2456 64.5281 9.06387 63.9682L9.96088 62.4755C10.2942 61.9208 10.1148 61.2008 9.55995 60.8674C9.00528 60.5339 8.28529 60.7136 7.95186 61.2683L7.05593 62.7595C6.0447 62.0027 5.16144 61.0849 4.43942 60.0471L5.95908 59.2047C6.52516 58.891 6.72969 58.1777 6.41579 57.6116C6.10205 57.0457 5.38893 56.8412 4.82269 57.1549L3.29881 57.9996C2.83351 56.9212 2.52476 55.7601 2.40352 54.5443H4.1477C4.79488 54.5443 5.31956 54.0197 5.31956 53.3725C5.31956 52.7253 4.79488 52.2006 4.1477 52.2006H2.40352C2.53883 50.8436 2.90773 49.5546 3.46756 48.3731L4.9605 49.2701C5.14941 49.3837 5.35753 49.4376 5.56284 49.4376C5.96064 49.4376 6.3486 49.2349 6.56844 48.8691C6.90172 48.3145 6.72219 47.5945 6.16751 47.261L4.67629 46.365C5.43315 45.3537 6.35095 44.4705 7.3889 43.7483L8.23123 45.268C8.44528 45.654 8.84497 45.872 9.25715 45.872C9.44933 45.872 9.64433 45.8247 9.82417 45.7248C10.3903 45.4111 10.5948 44.6978 10.281 44.1319L9.43636 42.6078C10.5148 42.1425 11.6759 41.8338 12.8915 41.7125V43.4567C12.8915 44.1039 13.4161 44.6286 14.0633 44.6286C14.7105 44.6286 15.2352 44.1039 15.2352 43.4567V41.7125C16.5922 41.8479 17.8812 42.2168 19.0628 42.7766L18.1657 44.2695C17.8325 44.8242 18.012 45.5442 18.5667 45.8776C18.7556 45.9912 18.9637 46.0451 19.169 46.0451C19.5668 46.0451 19.9548 45.8425 20.1746 45.4767L21.0707 43.9855C22.0819 44.7423 22.9652 45.6601 23.6874 46.6981L22.1677 47.5404C21.6016 47.8542 21.3971 48.5674 21.711 49.1335C21.925 49.5196 22.3247 49.7374 22.7369 49.7374C22.9291 49.7374 23.1241 49.6901 23.3039 49.5902L24.8278 48.7455C25.2931 49.824 25.6019 50.9849 25.7231 52.2006H23.9789C23.3317 52.2006 22.8071 52.7253 22.8071 53.3725C22.8071 54.0197 23.3317 54.5443 23.9789 54.5443H25.7231C25.5878 55.9014 25.2189 57.1904 24.6591 58.3719L23.1661 57.4749C22.6113 57.1415 21.8915 57.3212 21.558 57.8759C21.2247 58.4305 21.4043 59.1505 21.959 59.484L23.4502 60.38C22.6935 61.3911 21.7757 62.2744 20.7377 62.9964ZM27.3276 48.7034C25.4636 43.2625 20.0187 39.2713 14.0632 39.3101C11.0059 39.3302 8.18763 40.2585 5.71408 42.0641C5.23378 40.4129 5.1455 38.6574 5.46346 36.9664H22.1043C24.1814 36.9664 26.0284 38.21 26.8095 40.1348L29.8394 47.6003L27.3276 48.7034ZM50.1647 47.6085L50.6972 46.3003C51.0944 45.3247 51.5936 44.3889 52.1808 43.5189C52.5429 42.9825 52.4015 42.2541 51.8651 41.8919C51.3284 41.5297 50.6002 41.671 50.2383 42.2075C49.5605 43.2116 48.9846 44.2911 48.5265 45.4165L45.6171 52.5631C45.437 53.0073 45.0106 53.2942 44.5314 53.2942H35.469C34.9898 53.2942 34.5636 53.0072 34.3833 52.5631L28.9815 39.2534C27.8398 36.4405 25.1405 34.6227 22.1046 34.6227H2.34477V32.279H22.1882H22.203C26.2286 32.279 29.7905 34.6961 31.2777 38.437L35.9585 50.2116C36.1359 50.6577 36.5674 50.9505 37.0476 50.9505H42.9536C43.4264 50.9505 43.8531 50.6663 44.0351 50.2297L46.4446 44.4533C49.5305 37.055 56.704 32.2458 64.7201 32.2012L75.91 32.1388H75.911H75.9121L77.6562 32.1291V34.4663H64.8074C60.9601 34.4663 57.3019 35.6903 54.2282 38.0062C53.7114 38.3957 53.6081 39.1304 53.9975 39.6473C54.3871 40.1641 55.1213 40.2673 55.6387 39.878C58.3025 37.8709 61.4731 36.81 64.8074 36.81H70.4567L69.2481 39.7046C68.1861 39.4474 67.0777 39.3099 65.9377 39.3099C60.0455 39.2771 54.647 43.1122 52.6714 48.7088L50.1647 47.6085ZM75.5614 46.6979L74.0418 47.5403C73.4757 47.854 73.2712 48.5673 73.5849 49.1334C73.7988 49.5194 74.1987 49.7373 74.6108 49.7373C74.8029 49.7373 74.998 49.6899 75.1779 49.5901L76.7017 48.7454C77.167 49.8238 77.4758 50.9849 77.597 52.2005H75.853C75.2057 52.2005 74.6811 52.7252 74.6811 53.3723C74.6811 54.0195 75.2057 54.5442 75.853 54.5442H77.597C77.4617 55.9012 77.0928 57.1901 76.5331 58.3718L75.0404 57.4748C74.4854 57.1415 73.7659 57.3209 73.4323 57.8757C73.0988 58.4304 73.2785 59.1504 73.833 59.4838L75.3243 60.3799C74.5674 61.3911 73.6496 62.2744 72.6118 62.9964L71.7693 61.4767C71.4556 60.9106 70.742 60.706 70.1764 61.02C69.6103 61.3338 69.4058 62.047 69.7195 62.6131L70.5642 64.137C69.4858 64.6023 68.3249 64.911 67.1091 65.0323V63.2881C67.1091 62.6409 66.5846 62.1162 65.9372 62.1162C65.2899 62.1162 64.7654 62.6409 64.7654 63.2881V65.0323C63.4084 64.897 62.1195 64.5281 60.9378 63.9682L61.8347 62.4755C62.1681 61.9206 61.9884 61.2008 61.4337 60.8674C60.8792 60.5341 60.1591 60.7135 59.8258 61.2683L58.9299 62.7595C57.9186 62.0027 57.0354 61.0849 56.3133 60.0469L57.833 59.2046C58.3991 58.8908 58.6036 58.1776 58.2899 57.6115C57.9763 57.0454 57.263 56.8406 56.6969 57.1548L55.1731 57.9994C54.7078 56.921 54.399 55.76 54.2778 54.5442H56.0218C56.6691 54.5442 57.1936 54.0195 57.1936 53.3723C57.1936 52.7252 56.6691 52.2005 56.0218 52.2005H54.2778C54.4131 50.8435 54.782 49.5546 55.3416 48.3729L56.8344 49.2699C57.0235 49.3835 57.2315 49.4374 57.4369 49.4374C57.8347 49.4374 58.2225 49.2348 58.4425 48.869C58.776 48.3143 58.5963 47.5943 58.0418 47.2609L56.5505 46.3648C57.3074 45.3536 58.2252 44.4703 59.263 43.7483L60.1055 45.2681C60.3194 45.6542 60.7194 45.872 61.1314 45.872C61.3236 45.872 61.5186 45.8247 61.6984 45.7248C62.2645 45.4111 62.469 44.6978 62.1553 44.1317L61.3106 42.6078C62.389 42.1425 63.5501 41.8338 64.7659 41.7125V43.4567C64.7659 44.1039 65.2904 44.6286 65.9377 44.6286C66.585 44.6286 67.1096 44.1039 67.1096 43.4567V41.7125C68.4666 41.8479 69.7556 42.2168 70.9373 42.7766L70.0403 44.2695C69.7069 44.8242 69.8865 45.5442 70.4412 45.8775C70.6301 45.9911 70.8381 46.045 71.0436 46.045C71.4414 46.045 71.8293 45.8423 72.0492 45.4764L72.9451 43.9852C73.956 44.7422 74.8394 45.66 75.5614 46.6979Z" fill="white"/>
</svg>
