<svg width="80" height="80" viewBox="0 0 80 80" fill="none" xmlns="http://www.w3.org/2000/svg">
<g clip-path="url(#clip0_96_358)">
<path d="M24.0731 48.4325C20.3009 44.6602 14.1629 44.6602 10.3909 48.4325C6.61872 52.2047 6.61872 58.3425 10.3909 62.1147C12.277 64.0008 14.7545 64.9439 17.232 64.9439C19.7095 64.9439 22.187 64.0008 24.0731 62.1147C27.8453 58.3425 27.8453 52.2047 24.0731 48.4325ZM12.0481 60.4575C9.18982 57.5991 9.18982 52.9482 12.0481 50.0897C13.4773 48.6605 15.3547 47.946 17.232 47.946C19.1093 47.946 20.9867 48.6605 22.4159 50.0897C25.2742 52.9482 25.2742 57.5991 22.4159 60.4575C19.5573 63.316 14.9065 63.316 12.0481 60.4575Z" fill="white"/>
<path d="M21.3896 51.116C19.0971 48.8233 15.3666 48.8233 13.0741 51.116C10.7816 53.4085 10.7816 57.1388 13.0741 59.4314C14.2204 60.5777 15.7261 61.1508 17.2318 61.1508C18.7374 61.1508 20.2432 60.5777 21.3894 59.4314C23.6821 57.1388 23.6821 53.4085 21.3896 51.116ZM19.7324 57.7741C18.3536 59.1529 16.1102 59.1529 14.7315 57.7741C13.3527 56.3954 13.3527 54.1519 14.7315 52.7732C15.4208 52.0838 16.3265 51.7391 17.2319 51.7391C18.1374 51.7391 19.043 52.0838 19.7324 52.7732C21.111 54.1519 21.111 56.3954 19.7324 57.7741Z" fill="white"/>
<path d="M73.2181 57.751C73.8084 57.4859 74.0721 56.7921 73.807 56.2018C72.5743 53.4584 69.835 51.6855 66.8279 51.6855C62.611 51.6855 59.1804 55.1163 59.1804 59.3332C59.1804 63.5501 62.611 66.9809 66.8279 66.9809C69.7335 66.9809 72.3515 65.3682 73.6604 62.7723C73.9517 62.1943 73.7195 61.4898 73.1417 61.1984C72.5639 60.907 71.859 61.1391 71.5676 61.7171C70.6595 63.5182 68.8434 64.6371 66.8281 64.6371C63.9035 64.6371 61.5243 62.2577 61.5243 59.3332C61.5243 56.4087 63.9037 54.0293 66.8281 54.0293C68.914 54.0293 70.8142 55.2591 71.669 57.1623C71.9342 57.7526 72.6273 58.016 73.2181 57.751Z" fill="white"/>
<path d="M66.8277 55.2441C64.5729 55.2441 62.7385 57.0785 62.7385 59.3334C62.7385 61.5882 64.5729 63.4226 66.8277 63.4226C69.0827 63.4226 70.9171 61.5882 70.9171 59.3334C70.9171 57.0785 69.0827 55.2441 66.8277 55.2441ZM66.8277 61.079C65.8654 61.079 65.0823 60.296 65.0823 59.3335C65.0823 58.371 65.8654 57.588 66.8277 57.588C67.7902 57.588 68.5734 58.371 68.5734 59.3335C68.5734 60.296 67.7902 61.079 66.8277 61.079Z" fill="white"/>
<path d="M78.8281 70.1619H74.3153C77.7469 67.7817 80 63.8166 80 59.3333C80 55.427 78.2892 51.9144 75.5795 49.5V37.3495C75.5795 35.6394 74.292 34.1617 72.5847 33.9127C72.5709 33.9106 72.5572 33.9089 72.5433 33.9074L65.2366 33.1049V31.0938C65.2366 30.4466 64.712 29.9219 64.0647 29.9219C63.4173 29.9219 62.8928 30.4466 62.8928 31.0938V32.8475L59.6577 32.4922V23.3086C59.6577 23.0933 59.8328 22.918 60.0483 22.918H62.5022C62.7177 22.918 62.8928 23.0933 62.8928 23.3086V25.4688C62.8928 26.1159 63.4173 26.6406 64.0647 26.6406C64.712 26.6406 65.2366 26.1159 65.2366 25.4688V23.3086C65.2366 21.8199 64.04 20.6075 62.5584 20.577V13.6977L64.025 12.5977C64.5427 12.2094 64.6477 11.4747 64.2594 10.957C63.8709 10.4391 63.1363 10.3344 62.6188 10.7227L60.6834 12.1742C60.3883 12.3956 60.2147 12.743 60.2147 13.1117V20.5742H60.0483C58.5406 20.5742 57.3139 21.8009 57.3139 23.3086V32.2347L44.9572 30.8775L39.8581 14.2064H39.9825C41.4903 14.2064 42.7169 12.9797 42.7169 11.472V10.2288C42.7169 8.7211 41.4902 7.49438 39.9825 7.49438H7.52422C6.01656 7.49438 4.78984 8.7211 4.78984 10.2288V11.472C4.78984 12.9797 6.01656 14.2064 7.52422 14.2064H7.88906V36.4108C6.01672 37.3088 4.26922 38.4855 2.70344 39.9228C2.30312 40.2903 2.06703 40.8134 2.05531 41.3583C2.04359 41.9066 2.25922 42.4434 2.64703 42.8311L3.97594 44.16L3.16781 44.9681C2.38297 45.753 2.34422 47.0058 3.05172 47.8369C2.60422 48.6895 2.23297 49.5858 1.94672 50.5055C0.85875 50.5925 0 51.506 0 52.6161V57.9313C0 59.0413 0.858594 59.9545 1.94687 60.0419C2.23312 60.9616 2.60422 61.8577 3.05187 62.7105C2.34437 63.5416 2.38313 64.7944 3.16797 65.5792L6.92641 69.3377C7.71125 70.1224 8.96406 70.1613 9.79516 69.4538C10.2991 69.7183 10.8195 69.9525 11.3497 70.1619H1.17188C0.524687 70.1619 0 70.6866 0 71.3338C0 71.9809 0.524687 72.5056 1.17188 72.5056H78.8281C79.4755 72.5056 80 71.9809 80 71.3338C80 70.6866 79.4755 70.1619 78.8281 70.1619ZM45.2342 33.2658L72.2633 36.2345C72.8191 36.3241 73.2358 36.8005 73.2358 37.3497V41.6709H48.0947C46.5173 41.6709 45.2342 40.3878 45.2342 38.8105V33.2658ZM42.4784 30.7863H28.4895C27.8423 30.7863 27.3177 31.3109 27.3177 31.9581C27.3177 32.6053 27.8423 33.13 28.4895 33.13H42.8905V38.8105C42.8905 41.68 45.225 44.0147 48.0947 44.0147H73.2358V47.8306C71.3377 46.7689 69.1528 46.1609 66.8277 46.1609C59.5652 46.1609 53.6567 52.0689 53.6555 59.3313H38.0422C38.5819 56.2713 38.4511 53.1099 37.6486 50.1028C36.6889 46.5072 34.7833 43.2083 32.1375 40.5624C28.2312 36.6561 23.0391 34.4436 17.5175 34.3324C15.0069 34.2828 12.5487 34.6694 10.2328 35.455V33.1297H22.9688C23.6159 33.1297 24.1406 32.605 24.1406 31.9578C24.1406 31.3106 23.6159 30.7859 22.9688 30.7859H20.3005V14.2064H37.4072L42.4784 30.7863ZM10.233 30.7863V14.2064H17.9569V30.7863H10.233ZM7.52422 11.8627C7.30891 11.8627 7.13359 11.6874 7.13359 11.472V10.2288C7.13359 10.0134 7.30891 9.83813 7.52422 9.83813H39.9825C40.1978 9.83813 40.3731 10.0134 40.3731 10.2288V11.472C40.3731 11.6874 40.1978 11.8627 39.9825 11.8627H7.52422ZM17.4705 36.6759C22.3837 36.7749 27.0042 38.7436 30.4803 42.2199C32.835 44.5745 34.5308 47.5095 35.3842 50.7074C36.1344 53.5181 36.2269 56.4809 35.6595 59.3314H33.9314C34.2619 58.9578 34.4639 58.4681 34.4639 57.9313V52.6161C34.4639 51.5061 33.6053 50.5928 32.517 50.5055C32.2308 49.5859 31.8597 48.6895 31.412 47.8369C32.1195 47.0058 32.0808 45.753 31.2959 44.9681L27.5375 41.2097C26.7525 40.4249 25.4997 40.3861 24.6688 41.0936C23.8161 40.6461 22.9198 40.2749 22.0002 39.9886C21.913 38.9005 20.9995 38.0417 19.8894 38.0417H14.5744C13.4644 38.0417 12.5511 38.9003 12.4637 39.9886C11.5441 40.2749 10.648 40.6459 9.79516 41.0936C8.96422 40.3863 7.71156 40.4247 6.92641 41.2097L5.63344 42.5027L4.54719 41.4164C8.11234 38.2606 12.687 36.5813 17.4705 36.6759ZM19.6752 70.1619H14.7889C14.7003 69.3183 14.1198 68.6099 13.2887 68.3602C12.4164 68.0981 11.5675 67.7466 10.7655 67.3153C10.0017 66.9044 9.09062 66.9952 8.43188 67.5286L4.97672 64.0734C5.51047 63.4147 5.60094 62.5038 5.19016 61.74C4.75891 60.9378 4.40734 60.0889 4.14531 59.2166C3.89563 58.3856 3.18734 57.8052 2.34359 57.7166V52.8303C3.18719 52.7417 3.89562 52.1613 4.14516 51.3302C4.40719 50.4578 4.75875 49.6089 5.19016 48.8069C5.60094 48.043 5.51031 47.1322 4.97672 46.4734L8.43188 43.0183C9.09078 43.552 10.0017 43.6424 10.7653 43.2317C11.5675 42.8005 12.4164 42.4489 13.2887 42.1869C14.1197 41.9372 14.7002 41.2289 14.7888 40.3852H19.675C19.7636 41.2288 20.3441 41.9372 21.1752 42.1867C22.0475 42.4488 22.8964 42.8003 23.6984 43.2317C24.4622 43.6425 25.373 43.5519 26.0319 43.0183L29.487 46.4734C28.9534 47.1324 28.863 48.0433 29.2736 48.8069C29.7048 49.6089 30.0564 50.458 30.3184 51.3302C30.5681 52.1613 31.2764 52.7416 32.1202 52.8303V57.7166C31.2766 57.8052 30.5681 58.3856 30.3184 59.2167C30.0564 60.0891 29.7048 60.938 29.2736 61.74C28.863 62.5038 28.9534 63.4145 29.487 64.0734L26.0319 67.5286C25.3731 66.9952 24.4622 66.9044 23.6984 67.3152C22.8964 67.7464 22.0473 68.098 21.1752 68.36C20.3442 68.6099 19.7638 69.3181 19.6752 70.1619ZM23.1144 70.1619C23.6445 69.9525 24.165 69.7183 24.6689 69.4538C25.5 70.1614 26.753 70.1225 27.5377 69.3377L31.2961 65.5792C32.0809 64.7944 32.1197 63.5414 31.4122 62.7105C31.5897 62.3724 31.7516 62.0256 31.9045 61.6752H53.8683C54.5 65.1799 56.5206 68.2063 59.3403 70.1619H23.1144ZM55.9994 59.3333C55.9994 53.3624 60.857 48.5047 66.8278 48.5047C72.7988 48.5047 77.6564 53.3624 77.6564 59.3333C77.6564 65.3041 72.7988 70.1617 66.8278 70.1617C60.8569 70.1619 55.9994 65.3042 55.9994 59.3333Z" fill="white"/>
<path d="M42.2883 57.3459C42.9357 57.3459 43.4602 56.8212 43.4602 56.174V50.3679C43.4602 49.7207 42.9357 49.196 42.2883 49.196C41.641 49.196 41.1165 49.7207 41.1165 50.3679V56.174C41.1165 56.8212 41.641 57.3459 42.2883 57.3459Z" fill="white"/>
<path d="M46.4009 57.3459C47.0482 57.3459 47.5728 56.8212 47.5728 56.174V50.3679C47.5728 49.7207 47.0482 49.196 46.4009 49.196C45.7535 49.196 45.229 49.7207 45.229 50.3679V56.174C45.229 56.8212 45.7535 57.3459 46.4009 57.3459Z" fill="white"/>
<path d="M50.5137 57.3459C51.161 57.3459 51.6855 56.8212 51.6855 56.174V50.3679C51.6855 49.7207 51.161 49.196 50.5137 49.196C49.8663 49.196 49.3418 49.7207 49.3418 50.3679V56.174C49.3418 56.8212 49.8665 57.3459 50.5137 57.3459Z" fill="white"/>
</g>
<defs>
<clipPath id="clip0_96_358">
<rect width="80" height="80" fill="white"/>
</clipPath>
</defs>
</svg>
