<svg width="80" height="80" viewBox="0 0 80 80" fill="none" xmlns="http://www.w3.org/2000/svg">
<path d="M69.9832 52.2087C69.9832 51.5614 69.4586 51.0369 68.8113 51.0369C68.1639 51.0369 67.6394 51.5614 67.6394 52.2087V52.4459C67.6394 53.0933 68.1639 53.6178 68.8113 53.6178C69.4586 53.6178 69.9832 53.0933 69.9832 52.4459V52.2087Z" fill="white"/>
<path d="M25.0513 51.0369C24.4039 51.0369 23.8794 51.5614 23.8794 52.2087V52.4459C23.8794 53.0933 24.4039 53.6178 25.0513 53.6178C25.6986 53.6178 26.2231 53.0933 26.2231 52.4459V52.2087C26.2231 51.5616 25.6986 51.0369 25.0513 51.0369Z" fill="white"/>
<path d="M49.4441 51.0369C48.7967 51.0369 48.2722 51.5614 48.2722 52.2087V52.4459C48.2722 53.0933 48.7967 53.6178 49.4441 53.6178C50.0914 53.6178 50.616 53.0933 50.616 52.4459V52.2087C50.616 51.5616 50.0914 51.0369 49.4441 51.0369Z" fill="white"/>
<path d="M11.9172 51.0369C11.2699 51.0369 10.7454 51.5614 10.7454 52.2087V52.4459C10.7454 53.0933 11.2699 53.6178 11.9172 53.6178C12.5646 53.6178 13.0891 53.0933 13.0891 52.4459V52.2087C13.0891 51.5616 12.5644 51.0369 11.9172 51.0369Z" fill="white"/>
<path d="M79.7416 35.4761L79.1919 34.7922L76.1167 30.9667C76.1163 30.9661 76.1156 30.9656 76.1152 30.965L73.7428 28.0139C73.5203 27.7372 73.1845 27.5762 72.8294 27.5762H58.7016C58.0543 27.5762 57.5297 28.1008 57.5297 28.7481V32.1692H55.3925C54.7452 32.1692 54.2207 32.6937 54.2207 33.3411V42.5462C54.2207 43.1936 54.7452 43.7181 55.3925 43.7181H57.5297V46.5999H49.4446H49.4444C49.4443 46.5999 49.4443 46.5999 49.4441 46.5999H49.444C49.444 46.5999 49.444 46.5999 49.4438 46.5999H49.4437H44.2258V44.9831H51.5802C52.2276 44.9831 52.7521 44.4585 52.7521 43.8112V23.1172C52.7521 22.4698 52.2276 21.9453 51.5802 21.9453H10.8604C10.2131 21.9453 9.68857 22.4698 9.68857 23.1172C9.68857 23.7645 10.2131 24.2891 10.8604 24.2891H50.4085V42.6395C37.8163 42.6395 11.8994 42.6395 2.34375 42.6395V24.2891H6.95421C7.60155 24.2891 8.12608 23.7645 8.12608 23.1172C8.12608 22.4698 7.60155 21.9453 6.95421 21.9453H1.17187C0.52453 21.9453 0 22.4698 0 23.1172V43.8114C0 44.4587 0.52453 44.9832 1.17187 44.9832H8.52623V46.6001H1.17187C0.52453 46.6001 0 47.1246 0 47.772V51.9996C0 52.647 0.52453 53.1715 1.17187 53.1715H6.25233C6.66171 55.9309 9.04561 58.0549 11.917 58.0549C14.7883 58.0549 17.1723 55.9309 17.5815 53.1715H19.3865C19.7959 55.9309 22.1798 58.0549 25.051 58.0549C27.9224 58.0549 30.3065 55.9309 30.7157 53.1715H31.7151V55.2326C31.7151 55.8799 32.2396 56.4045 32.887 56.4045H41.2235C41.8709 56.4045 42.3954 55.8799 42.3954 55.2326V53.1715H43.7794C44.1888 55.9309 46.5727 58.0549 49.444 58.0549C52.3154 58.0549 54.6994 55.9309 55.1086 53.1715H58.7014H63.1464C63.4142 54.9923 64.5391 56.5798 66.2169 57.4334C66.3872 57.5201 66.5686 57.561 66.7475 57.561C67.1744 57.561 67.586 57.3268 67.7928 56.9202C68.0863 56.3434 67.8566 55.6379 67.2799 55.3443C66.1372 54.7629 65.4274 53.6068 65.4274 52.3273C65.4274 50.4753 66.9336 48.9437 68.811 48.9437C70.6766 48.9437 72.1944 50.4617 72.1944 52.3273C72.1944 53.5982 71.4914 54.7507 70.36 55.3349C69.7849 55.632 69.5595 56.3388 69.8564 56.9138C70.1536 57.489 70.8606 57.7143 71.4353 57.4174C73.0952 56.5602 74.2083 54.9792 74.4749 53.1712H78.8277C79.475 53.1712 79.9995 52.6467 79.9995 51.9993V36.2104C80 35.9434 79.9087 35.6842 79.7416 35.4761ZM76.7069 35.442H68.0124V32.8729H74.6416L76.7069 35.442ZM56.5646 41.3743V34.5129H57.5299V41.3743H56.5646ZM57.5297 50.8276H54.971C54.7841 50.1399 54.4725 49.5032 54.0615 48.9437H57.5299V50.8276H57.5297ZM43.9176 50.8276C41.8566 50.8276 32.4518 50.8276 30.5781 50.8276C30.3912 50.1399 30.0796 49.5032 29.6685 48.9437H43.0541H44.8271C44.4159 49.5034 44.1043 50.1399 43.9176 50.8276ZM16.5342 48.9439H20.4342C20.0231 49.5034 19.7115 50.1399 19.5246 50.8278H17.4437C17.2568 50.1399 16.9453 49.5034 16.5342 48.9439ZM10.87 44.9832H41.8823V46.6001C35.8048 46.6001 17.9592 46.6001 10.87 46.6001V44.9832ZM2.34375 48.9439H7.29983C6.88874 49.5034 6.57717 50.1399 6.3903 50.8278H2.34375V48.9439ZM11.9172 55.711C10.0515 55.711 8.53358 54.1931 8.53358 52.3274C8.53358 50.4613 10.0617 48.9439 11.9172 48.9439C13.7711 48.9439 15.3006 50.4595 15.3006 52.3274C15.3006 54.1931 13.7828 55.711 11.9172 55.711ZM25.0512 55.711C23.1856 55.711 21.6678 54.1931 21.6678 52.3274C21.6678 50.479 23.179 48.9439 25.0509 48.9439H25.0512H25.0518C26.9003 48.9439 28.4348 50.4551 28.4348 52.3274C28.4348 54.1931 26.917 55.711 25.0512 55.711ZM40.0518 54.0607H34.059V53.1715H40.0518V54.0607ZM49.4441 55.711C47.5785 55.711 46.0607 54.1931 46.0607 52.3274C46.0607 50.479 47.5719 48.9439 49.4438 48.9439H49.4441H49.4447C51.3636 48.9439 52.8277 50.5246 52.8277 52.3274C52.8279 54.1931 51.3099 55.711 49.4441 55.711ZM74.3378 50.8276C73.6769 48.3948 71.4502 46.5999 68.8111 46.5999C66.1719 46.5999 63.9452 48.3948 63.2842 50.8276H59.8733C59.8733 48.4365 59.8733 32.1165 59.8733 29.92H72.2677L72.7572 30.5289H67.8641C66.6533 30.5289 65.6683 31.514 65.6683 32.7248V35.5898C65.6683 36.8006 66.6533 37.7856 67.8641 37.7856H77.6559V45.4721H76.8648C76.2175 45.4721 75.693 45.9967 75.693 46.644C75.693 47.2914 76.2175 47.8159 76.8648 47.8159H77.6559V50.8274H74.3378V50.8276Z" fill="white"/>
<path d="M46.0806 39.5674V27.3608C46.0806 26.7135 45.556 26.189 44.9087 26.189C44.2613 26.189 43.7368 26.7135 43.7368 27.3608V39.5674C43.7368 40.2147 44.2613 40.7393 44.9087 40.7393C45.556 40.7393 46.0806 40.2147 46.0806 39.5674Z" fill="white"/>
<path d="M38.6675 39.5674V27.3608C38.6675 26.7135 38.1429 26.189 37.4956 26.189C36.8483 26.189 36.3237 26.7135 36.3237 27.3608V39.5674C36.3237 40.2147 36.8483 40.7393 37.4956 40.7393C38.1429 40.7393 38.6675 40.2147 38.6675 39.5674Z" fill="white"/>
<path d="M31.2544 39.5674V27.3608C31.2544 26.7135 30.7299 26.189 30.0825 26.189C29.4352 26.189 28.9106 26.7135 28.9106 27.3608V39.5674C28.9106 40.2147 29.4352 40.7393 30.0825 40.7393C30.7299 40.7393 31.2544 40.2147 31.2544 39.5674Z" fill="white"/>
<path d="M23.8416 39.5674V27.3608C23.8416 26.7135 23.317 26.189 22.6697 26.189C22.0223 26.189 21.4978 26.7135 21.4978 27.3608V39.5674C21.4978 40.2147 22.0223 40.7393 22.6697 40.7393C23.317 40.7393 23.8416 40.2147 23.8416 39.5674Z" fill="white"/>
<path d="M16.4285 39.5674V27.3608C16.4285 26.7135 15.9039 26.189 15.2566 26.189C14.6092 26.189 14.0847 26.7135 14.0847 27.3608V39.5674C14.0847 40.2147 14.6092 40.7393 15.2566 40.7393C15.9039 40.7393 16.4285 40.2147 16.4285 39.5674Z" fill="white"/>
<path d="M6.67163 27.3608V39.5674C6.67163 40.2147 7.19616 40.7393 7.84351 40.7393C8.49085 40.7393 9.01538 40.2147 9.01538 39.5674V27.3608C9.01538 26.7135 8.49085 26.189 7.84351 26.189C7.19616 26.189 6.67163 26.7135 6.67163 27.3608Z" fill="white"/>
</svg>
