<svg width="80" height="80" viewBox="0 0 80 80" fill="none" xmlns="http://www.w3.org/2000/svg">
<g clip-path="url(#clip0_96_394)">
<path d="M78.111 37.3864C74.2432 32.1752 69.1077 28.04 63.1921 25.3728C60.1959 24.0886 57.1918 22.9406 54.4879 21.9689C54.4678 21.9329 54.4653 21.8926 54.4427 21.8578C52.4133 18.9263 50.1263 16.1809 47.6093 13.6553C47.0862 13.1499 46.2543 13.1572 45.7404 13.6718C45.2258 14.1857 45.2185 15.0176 45.7239 15.5407C47.2644 17.0916 48.7164 18.7279 50.072 20.4418C47.8522 19.7045 46.1255 19.1729 45.1788 18.889C44.635 16.892 42.6556 15.6414 40.6189 16.0076C38.5822 16.3738 37.1625 18.2354 37.3486 20.2965C37.5342 22.3577 39.2639 23.9354 41.3336 23.9312C41.5411 23.9269 41.7487 23.9061 41.9531 23.8689L44.0002 26.5978H43.0585C42.6697 26.5978 42.2821 26.6545 41.9092 26.7662L30.3839 30.2233C29.6912 30.4326 28.9526 30.4369 28.2574 30.2367L14.5789 26.3317C12.1069 25.6249 9.54895 25.266 6.97876 25.2648C5.46387 25.2593 4.07776 26.1162 3.40515 27.4742L2.88025 28.5222L0.780029 30.9887C0.13916 31.6314 -0.131226 32.5554 0.0628662 33.4423L1.09741 37.7715C0.410156 38.2647 0.00183106 39.0575 0 39.9035V42.6262C0.00244141 43.7151 0.674438 44.6904 1.69067 45.0805L3.57361 49.7875C0.992432 50.9417 -0.432739 53.7401 0.151978 56.5062C0.737305 59.2717 3.17322 61.2542 5.99976 61.2645H35.3333C37.5464 61.2627 39.5789 60.0432 40.6213 58.0913C41.6638 56.1388 41.5466 53.7712 40.3174 51.9316H44.8572C45.1709 52.7855 45.332 53.6882 45.3333 54.5983C45.3333 55.3344 45.9302 55.9313 46.6669 55.9313C47.403 55.9313 47.9999 55.3344 47.9999 54.5983C48.0023 53.6986 47.8906 52.8026 47.6666 51.9316H57.7026L53.8934 58.5979H50.6665C49.9304 58.5979 49.3335 59.1948 49.3335 59.9315C49.3335 60.6676 49.9304 61.2645 50.6665 61.2645H70.5829C72.1906 61.259 73.7598 60.7701 75.0867 59.8619C75.2228 59.8168 75.3516 59.7503 75.4669 59.6648C75.5609 59.5855 75.6439 59.4927 75.7123 59.3901C75.8868 59.2418 76.059 59.0917 76.2213 58.9287L79.6094 55.5407C80.1147 55.0176 80.1074 54.1857 79.5929 53.6718C79.079 53.1572 78.2471 53.1499 77.724 53.6553L74.8108 56.5685L72.6904 53.7407C72.7557 53.6889 72.8241 53.6473 72.8931 53.59C75.2728 51.1583 77.1216 48.2592 78.324 45.0768C79.3329 44.6819 79.9976 43.7096 80 42.6262V39.9035C79.9963 38.7389 79.2279 37.7147 78.111 37.3864ZM35.7001 39.9315H36.0065L77.1094 39.9047C77.1832 39.9193 77.2583 39.9285 77.3334 39.9315V42.5982L35.0336 42.614L35.7001 39.9315ZM74.6014 37.2649H45.9094C51.3519 33.665 52.8052 27.3754 53.1921 24.3315C55.5267 25.1647 58.1012 26.1351 60.7123 27.2179L59.0491 29.9059C58.5565 30.7293 58.5443 31.754 59.0167 32.589C59.4891 33.424 60.3741 33.9403 61.3336 33.9421C61.5552 33.9415 61.7755 33.9141 61.991 33.8591L69.1455 32.025C71.1322 33.5869 72.9602 35.3423 74.6014 37.2649ZM66.2762 30.0139L61.3336 31.2993L63.1854 28.3062C64.2474 28.8152 65.2795 29.3859 66.2762 30.0139ZM40 19.9315C40 19.1948 40.5969 18.5979 41.3336 18.5979C42.0697 18.5979 42.6666 19.1948 42.6666 19.9315C42.6666 20.6676 42.0697 21.2645 41.3336 21.2645C40.5969 21.2645 40 20.6676 40 19.9315ZM44.3134 22.5725C44.5728 22.2838 44.7882 21.9585 44.9536 21.6075C46.1774 21.9793 48.172 22.6061 50.6281 23.4423C50.542 24.5073 50.3656 25.5626 50.1013 26.5978H47.3334L44.3134 22.5725ZM6.97876 27.9314C9.30176 27.9314 11.6132 28.2555 13.8464 28.8939L27.5269 32.802C28.7122 33.1408 29.9701 33.1328 31.1505 32.7782L42.6733 29.3206C42.7985 29.2839 42.9285 29.265 43.0585 29.265H49.1919C47.4957 33.142 43.8519 37.2649 36.0016 37.2649H35.7013C34.4818 37.2631 33.4186 38.0944 33.1256 39.2778L32.2931 42.5982H25.9998L22.3999 37.7983C22.3615 37.7459 22.2998 37.7221 22.2546 37.6769L22.276 37.6555L21.7517 37.1312C18.4393 33.8268 14.4067 31.3341 9.96948 29.8485L5.896 28.4917C6.14319 28.1389 6.54785 27.9296 6.97876 27.9314ZM2.66663 42.6262L2.63855 39.9315H20.6665L22.6825 42.6183L2.66663 42.6262ZM2.73743 32.7965L4.43054 30.8129L9.12537 32.3778C12.3315 33.4551 15.3131 35.1116 17.9211 37.2649H3.73352L2.73743 32.7965ZM24.0002 55.2648C24.0002 57.1056 22.5073 58.5979 20.6665 58.5979C18.8257 58.5979 17.3334 57.1056 17.3334 55.2648C17.3334 53.424 18.8257 51.9316 20.6665 51.9316C22.5073 51.9316 24.0002 53.424 24.0002 55.2648ZM25.6506 51.9316H30.3491C28.9948 53.947 28.9948 56.5825 30.3491 58.5979H25.6506C27.0056 56.5825 27.0056 53.947 25.6506 51.9316ZM15.6824 58.5979H10.9839C12.3389 56.5825 12.3389 53.947 10.9839 51.9316H15.6824C14.328 53.947 14.328 56.5825 15.6824 58.5979ZM2.66663 55.2648C2.66663 53.424 4.15894 51.9316 5.99976 51.9316C7.84119 51.9316 9.3335 53.424 9.3335 55.2648C9.3335 57.1056 7.84119 58.5979 5.99976 58.5979C5.11597 58.5979 4.26819 58.247 3.64319 57.622C3.01758 56.997 2.66663 56.1486 2.66663 55.2648ZM38.6664 55.2648C38.6664 57.1056 37.1741 58.5979 35.3333 58.5979C33.4924 58.5979 32.0001 57.1056 32.0001 55.2648C32.0001 53.424 33.4924 51.9316 35.3333 51.9316C37.1741 51.9316 38.6664 53.424 38.6664 55.2648ZM35.3333 49.265H6.23596L4.63623 45.2648H33.3331C37.0477 45.1805 40.6335 46.6265 43.2495 49.265H35.3333ZM56.9641 58.5979L60.6549 52.1392L69.2572 54.4756C69.4934 54.5269 69.7345 54.5568 69.9762 54.5647L72.6721 58.1646C72.0123 58.4496 71.3013 58.5967 70.5829 58.5979H56.9641ZM71.1078 51.6088C70.788 51.895 70.3467 52.0024 69.9304 51.8969L61.1212 49.5049C60.9216 49.4542 60.7214 49.4262 60.5145 49.3914C60.2808 49.2888 60.022 49.2571 59.7705 49.301C59.5734 49.2864 59.3707 49.265 59.1803 49.265H46.5399C45.5548 47.6458 44.209 46.2767 42.6068 45.2648H75.3424C74.3481 47.6299 72.9108 49.7832 71.1078 51.6088Z" fill="white"/>
<path d="M78.6664 63.9312H25.3333C24.5972 63.9312 24.0002 64.5281 24.0002 65.2648C24.0002 66.0009 24.5972 66.5978 25.3333 66.5978H78.6664C79.4031 66.5978 80 66.0009 80 65.2648C80 64.5281 79.4031 63.9312 78.6664 63.9312Z" fill="white"/>
<path d="M21.3335 65.2648C21.3335 64.5281 20.736 63.9312 19.9999 63.9312H9.33337C8.59668 63.9312 7.99976 64.5281 7.99976 65.2648C7.99976 66.0009 8.59668 66.5978 9.33337 66.5978H19.9999C20.736 66.5978 21.3335 66.0009 21.3335 65.2648Z" fill="white"/>
<path d="M4.00024 63.9312H1.33362C0.596924 63.9312 0 64.5281 0 65.2648C0 66.0009 0.596924 66.5978 1.33362 66.5978H4.00024C4.73633 66.5978 5.33325 66.0009 5.33325 65.2648C5.33325 64.5281 4.73633 63.9312 4.00024 63.9312Z" fill="white"/>
</g>
<defs>
<clipPath id="clip0_96_394">
<rect width="80" height="80" fill="white"/>
</clipPath>
</defs>
</svg>
