<svg width="80" height="80" viewBox="0 0 80 80" fill="none" xmlns="http://www.w3.org/2000/svg">
<path d="M2.58285 66.7701L6.37613 57.7913L6.37753 57.7881L7.77347 54.4843C8.15955 53.5673 8.8079 52.7847 9.63714 52.2348C10.4664 51.685 11.4396 51.3923 12.4346 51.3935H13.8268L14.7286 49.5287C13.8033 47.9098 12.2786 47.1693 11.1558 46.8346C10.3511 46.5993 9.64474 46.1086 9.14339 45.4366C8.64204 44.7646 8.3729 43.9477 8.37659 43.1093C8.37659 42.8664 8.47308 42.6335 8.64482 42.4617C8.81657 42.29 9.0495 42.1935 9.29238 42.1935H15.3594C15.6023 42.1935 15.8352 42.29 16.007 42.4617C16.1787 42.6335 16.2752 42.8664 16.2752 43.1093C16.2752 43.3522 16.1787 43.5851 16.007 43.7569C15.8352 43.9286 15.6023 44.0251 15.3594 44.0251H10.4219C10.5477 44.278 10.7243 44.5022 10.9409 44.6836C11.1574 44.865 11.4091 44.9997 11.6802 45.0791C12.8822 45.4385 14.4472 46.1666 15.6449 47.6354L18.0268 42.7107L20.7869 37.0027C21.1495 36.26 21.7127 35.6336 22.4129 35.1946C23.1131 34.7555 23.9223 34.5212 24.7488 34.5184H32.4961V33.1795C32.4958 32.8699 32.3726 32.573 32.1537 32.3541C31.9347 32.1352 31.6379 32.012 31.3283 32.0116H27.0811C26.8513 32.0114 26.6266 32.079 26.4351 32.206C26.2436 32.333 26.0938 32.5137 26.0046 32.7254C25.9583 32.837 25.8903 32.9383 25.8047 33.0235C25.7191 33.1087 25.6175 33.1761 25.5057 33.2219C25.3939 33.2677 25.2741 33.2909 25.1533 33.2901C25.0326 33.2894 24.9131 33.2648 24.8018 33.2178C24.6906 33.1707 24.5898 33.1021 24.5051 33.0159C24.4205 32.9296 24.3538 32.8275 24.3088 32.7154C24.2638 32.6033 24.2415 32.4834 24.243 32.3626C24.2446 32.2419 24.27 32.1226 24.3178 32.0116C24.547 31.4682 24.9314 31.0045 25.423 30.6787C25.9146 30.3529 26.4914 30.1794 27.0811 30.1801H28.2888V22.3537C28.2919 22.1129 28.3898 21.883 28.5612 21.7138C28.7326 21.5446 28.9638 21.4497 29.2046 21.4497C29.4455 21.4497 29.6767 21.5446 29.8481 21.7138C30.0195 21.883 30.1174 22.1129 30.1205 22.3537V30.1799H31.3282C32.1236 30.1807 32.8862 30.497 33.4487 31.0594C34.0111 31.6219 34.3274 32.3845 34.3282 33.1799V34.5188H38.0047C38.9396 34.5205 39.8612 34.7411 40.6954 35.1631C41.5297 35.5851 42.2535 36.1967 42.8088 36.9488L46.6682 42.1941H50.5432C51.3428 42.1958 52.1341 42.3575 52.8703 42.6697C53.6066 42.9818 54.273 43.4381 54.8302 44.0116L61.9708 51.3938H76.5736C76.7851 51.394 76.99 51.4672 77.1535 51.6012C77.3171 51.7353 77.4293 51.9217 77.471 52.129C77.5127 52.3363 77.4815 52.5516 77.3825 52.7385C77.2835 52.9254 77.1229 53.0722 76.928 53.1541C70.2405 55.9607 65.1169 61.8437 62.6583 65.1007C61.9656 66.0128 61.0718 66.7529 60.0464 67.2632C59.021 67.7735 57.8916 68.0403 56.7463 68.0429H3.42644C3.27525 68.043 3.12639 68.0057 2.99315 67.9342C2.85991 67.8628 2.74644 67.7594 2.66287 67.6334C2.57931 67.5074 2.52825 67.3627 2.51426 67.2122C2.50027 67.0616 2.52377 66.91 2.58269 66.7707L2.58285 66.7701ZM41.3328 38.0335C40.9481 37.5125 40.4467 37.0888 39.8688 36.7964C39.2908 36.504 38.6524 36.3511 38.0047 36.3499H24.7483C24.2659 36.3518 23.7936 36.4886 23.385 36.745C22.9763 37.0013 22.6475 37.3669 22.4358 37.8004L20.3108 42.1935H29.2125V41.1363C29.2135 40.2512 29.5656 39.4026 30.1915 38.7767C30.8174 38.1509 31.666 37.7988 32.5511 37.7979H39.2321C39.3533 37.7963 39.4737 37.8188 39.5862 37.8641C39.6987 37.9095 39.8011 37.9767 39.8874 38.0619C39.9738 38.1471 40.0423 38.2486 40.0891 38.3605C40.1359 38.4724 40.16 38.5925 40.16 38.7138C40.16 38.835 40.1359 38.9551 40.0891 39.067C40.0423 39.1789 39.9738 39.2804 39.8874 39.3656C39.8011 39.4508 39.6987 39.5181 39.5862 39.5634C39.4737 39.6087 39.3533 39.6312 39.2321 39.6296H32.5511C32.1516 39.6301 31.7686 39.7889 31.4861 40.0714C31.2036 40.3539 31.0446 40.7368 31.0441 41.1363V42.1935H44.3933L41.3328 38.0335ZM53.5125 45.2845C53.1264 44.887 52.6647 44.5709 52.1546 44.3546C51.6444 44.1383 51.0962 44.0263 50.5421 44.0251H19.4247L15.8611 51.3932H49.3941L48.5132 50.4088C48.0112 49.848 47.3967 49.3992 46.7096 49.0918C46.0226 48.7845 45.2785 48.6254 44.5258 48.6249H43.1336V49.7248C43.1352 49.8461 43.1127 49.9664 43.0674 50.0789C43.0221 50.1915 42.9548 50.2938 42.8696 50.3802C42.7844 50.4665 42.6829 50.535 42.571 50.5818C42.4591 50.6286 42.3391 50.6527 42.2178 50.6527C42.0965 50.6527 41.9764 50.6286 41.8645 50.5818C41.7526 50.535 41.6511 50.4665 41.5659 50.3802C41.4807 50.2938 41.4135 50.1915 41.3682 50.0789C41.3228 49.9664 41.3003 49.8461 41.3019 49.7248V48.6249H36.0497V49.7248C36.0513 49.8461 36.0288 49.9664 35.9835 50.0789C35.9382 50.1915 35.8709 50.2938 35.7857 50.3802C35.7005 50.4665 35.599 50.535 35.4871 50.5818C35.3752 50.6286 35.2552 50.6527 35.1339 50.6527C35.0126 50.6527 34.8925 50.6286 34.7806 50.5818C34.6687 50.535 34.5672 50.4665 34.482 50.3802C34.3968 50.2938 34.3296 50.1915 34.2843 50.0789C34.2389 49.9664 34.2164 49.8461 34.218 49.7248V48.6249H28.9211V49.7248C28.9211 49.845 28.8974 49.9641 28.8514 50.0752C28.8054 50.1863 28.7379 50.2873 28.6529 50.3723C28.5679 50.4574 28.4669 50.5248 28.3558 50.5708C28.2447 50.6169 28.1256 50.6406 28.0053 50.6406C27.8851 50.6406 27.766 50.6169 27.6549 50.5708C27.5438 50.5248 27.4428 50.4574 27.3578 50.3723C27.2728 50.2873 27.2053 50.1863 27.1593 50.0752C27.1133 49.9641 27.0896 49.845 27.0896 49.7248V48.6249H21.7927V49.7248C21.7927 49.845 21.769 49.9641 21.723 50.0752C21.677 50.1863 21.6095 50.2873 21.5245 50.3723C21.4394 50.4574 21.3385 50.5248 21.2274 50.5708C21.1163 50.6169 20.9972 50.6406 20.8769 50.6406C20.7566 50.6406 20.6376 50.6169 20.5265 50.5708C20.4153 50.5248 20.3144 50.4574 20.2294 50.3723C20.1443 50.2873 20.0769 50.1863 20.0308 50.0752C19.9848 49.9641 19.9611 49.845 19.9611 49.7248V48.5899C19.7465 48.5329 19.5599 48.3997 19.4364 48.2151C19.3128 48.0306 19.2607 47.8073 19.2898 47.5871C19.3189 47.367 19.4272 47.1649 19.5944 47.0188C19.7616 46.8726 19.9764 46.7924 20.1985 46.7931H44.5258C45.5362 46.7936 46.5351 47.0072 47.4573 47.4197C48.3796 47.8323 49.2046 48.4346 49.8785 49.1874L51.8516 51.3937H59.4219L53.5125 45.2845ZM56.7463 66.2107C57.6084 66.2088 58.4585 66.0081 59.2303 65.624C60.0022 65.24 60.675 64.683 61.1964 63.9965C62.51 62.2596 63.9369 60.6113 65.4677 59.0624H40.3394C40.2181 59.064 40.0977 59.0415 39.9852 58.9962C39.8727 58.9509 39.7703 58.8837 39.684 58.7985C39.5977 58.7132 39.5292 58.6118 39.4824 58.4998C39.4356 58.3879 39.4115 58.2679 39.4115 58.1466C39.4115 58.0253 39.4356 57.9052 39.4824 57.7933C39.5292 57.6814 39.5977 57.5799 39.684 57.4947C39.7703 57.4095 39.8727 57.3423 39.9852 57.297C40.0977 57.2516 40.2181 57.2291 40.3394 57.2307H67.3907C69.052 55.7294 70.8512 54.3882 72.7646 53.2249H12.4346C11.7998 53.2241 11.1789 53.4108 10.6498 53.7616C10.1208 54.1125 9.70712 54.6117 9.46082 55.1968L8.60144 57.2302H29.8438C30.0867 57.2302 30.3198 57.3268 30.4916 57.4986C30.6634 57.6704 30.7599 57.9034 30.7599 58.1463C30.7599 58.3893 30.6634 58.6223 30.4916 58.7941C30.3198 58.9659 30.0867 59.0624 29.8438 59.0624H7.82816L4.808 66.2112L56.7463 66.2107Z" fill="white"/>
<path d="M34.2263 57.2303H35.4845C35.6057 57.2287 35.7261 57.2512 35.8386 57.2966C35.9511 57.3419 36.0535 57.4091 36.1398 57.4943C36.2262 57.5795 36.2947 57.681 36.3415 57.7929C36.3883 57.9048 36.4124 58.0249 36.4124 58.1462C36.4124 58.2675 36.3883 58.3875 36.3415 58.4994C36.2947 58.6113 36.2262 58.7128 36.1398 58.798C36.0535 58.8833 35.9511 58.9505 35.8386 58.9958C35.7261 59.0411 35.6057 59.0636 35.4845 59.062H34.2268C33.986 59.0589 33.7561 58.961 33.5869 58.7896C33.4177 58.6182 33.3228 58.387 33.3228 58.1462C33.3228 57.9053 33.4177 57.6742 33.5869 57.5027C33.7561 57.3313 33.986 57.2334 34.2268 57.2303H34.2263Z" fill="white"/>
<path d="M24.9976 28.8579C24.7547 28.8579 24.5217 28.7614 24.35 28.5897C24.1783 28.418 24.0818 28.185 24.0818 27.9421V12.8735C24.0818 12.7533 24.1055 12.6342 24.1515 12.5231C24.1975 12.412 24.265 12.311 24.35 12.226C24.435 12.141 24.536 12.0735 24.6471 12.0275C24.7582 11.9815 24.8773 11.9578 24.9976 11.9578C25.1178 11.9578 25.2369 11.9815 25.348 12.0275C25.4591 12.0735 25.5601 12.141 25.6451 12.226C25.7301 12.311 25.7976 12.412 25.8436 12.5231C25.8896 12.6342 25.9133 12.7533 25.9133 12.8735V27.9421C25.9133 28.185 25.8168 28.418 25.6451 28.5897C25.4734 28.7614 25.2404 28.8579 24.9976 28.8579Z" fill="white"/>
</svg>
