<svg width="80" height="80" viewBox="0 0 80 80" fill="none" xmlns="http://www.w3.org/2000/svg">
<g clip-path="url(#clip0_96_399)">
<path d="M79.7865 32.3559C79.5537 32.0121 79.1656 31.8062 78.7504 31.8062H74.8772V26.7415C74.8772 26.0504 74.317 25.4903 73.6259 25.4903H43.1976L41.852 24.1663C41.6179 23.936 41.3028 23.8071 40.9745 23.8071H37.8462L34.0387 20.0646C33.8048 19.8346 33.4897 19.7057 33.1617 19.7057H28.3228V18.574C28.3228 16.7112 26.912 15.1723 25.1028 14.9681V11.6248C25.1028 10.9337 24.5426 10.3735 23.8515 10.3735C23.1604 10.3735 22.6003 10.9337 22.6003 11.6248V14.9681C20.7887 15.1721 19.3759 16.711 19.3759 18.574V19.7057H10.6306C10.087 19.7057 9.60544 20.0568 9.43935 20.5743C9.2731 21.092 9.46013 21.6578 9.902 21.9742L14.7103 25.4176L7.74091 37.5982L6.70857 37.7553C6.21247 37.8307 5.8095 38.1951 5.68481 38.6812L4.65325 42.6987L1.24185 42.7193C0.80044 42.722 0.39294 42.9571 0.169971 43.3381C-0.0533098 43.719 -0.0590911 44.1893 0.154346 44.5757L4.54794 52.526C4.76825 52.9246 5.18763 53.172 5.6431 53.172H60.1348C60.325 53.172 60.5126 53.1287 60.6836 53.0453C73.1903 46.9421 77.4222 39.751 79.9122 33.5215C80.0664 33.1363 80.0192 32.6995 79.7865 32.3559ZM72.3747 31.8062H65.3547V27.9928H72.3748V31.8062H72.3747ZM55.9206 31.8062V27.9928H62.8522V31.8062H55.9206ZM53.4181 27.9928V31.8062H49.6029C49.5714 31.7665 49.5381 31.7279 49.5011 31.6915L45.7412 27.9928H53.4181ZM46.0492 31.8062H45.9084C45.8454 31.8062 45.7825 31.8109 45.7203 31.8204L34.5633 33.5178V26.3096H40.4622L46.0492 31.8062ZM32.0608 26.3096V33.8985L24.602 35.0332V26.3096H32.0608ZM21.8783 18.5742C21.8783 17.9526 22.3859 17.447 23.0098 17.447H24.6928C25.3145 17.447 25.8201 17.9526 25.8201 18.5742V19.7059H21.8781V18.5742H21.8783ZM32.6495 22.2082L34.2762 23.8071H16.759L14.5265 22.2082H32.6495ZM17.0829 26.3096H22.0995V35.414L10.8986 37.1181L17.0829 26.3096ZM59.8443 50.6699H6.38122L3.36356 45.2093L5.6331 45.1956H68.5483C66.2656 47.0659 63.4275 48.9007 59.8443 50.6699ZM71.269 42.6931H7.23841L7.90278 40.1051L46.0031 34.3087H76.8629C75.615 37.0865 73.9489 39.9134 71.269 42.6931ZM23.1803 47.8374C23.1803 48.5285 22.6201 49.0887 21.929 49.0887H8.94732C8.25622 49.0887 7.69606 48.5285 7.69606 47.8374C7.69606 47.1463 8.25622 46.5862 8.94732 46.5862H21.9292C22.6203 46.5862 23.1803 47.1463 23.1803 47.8374ZM69.9475 37.8409C69.9475 38.532 69.3873 39.0921 68.6962 39.0921H53.4114C52.7203 39.0921 52.1601 38.532 52.1601 37.8409C52.1601 37.1498 52.7203 36.5896 53.4114 36.5896H68.6962C69.3873 36.5896 69.9475 37.1498 69.9475 37.8409ZM76.0201 60.5763C76.3743 61.1696 76.1804 61.9378 75.5872 62.292C74.7411 62.7971 73.607 63.3768 72.3368 63.3768C70.6267 63.3768 69.1004 62.4074 67.6245 61.4699C66.4504 60.7243 65.2365 59.9531 64.2539 59.9531C63.2684 59.9531 62.0542 60.7246 60.8798 61.4709C59.4051 62.4079 57.8804 63.3768 56.1706 63.3768C54.4581 63.3768 52.9317 62.4074 51.4557 61.4699C50.2817 60.7243 49.0678 59.9531 48.0829 59.9531C47.1003 59.9531 45.8862 60.7242 44.7122 61.4699C43.2362 62.4074 41.71 63.3768 39.9998 63.3768C38.2867 63.3768 36.7603 62.4068 35.2837 61.4688C34.1111 60.7237 32.8984 59.9532 31.9165 59.9532C30.9317 59.9532 29.7178 60.7243 28.5437 61.4701C27.0678 62.4076 25.5414 63.377 23.8289 63.377C22.1187 63.377 20.5925 62.4076 19.1165 61.4701C17.9425 60.7243 16.7286 59.9532 15.7458 59.9532C14.7604 59.9532 13.5462 60.7248 12.372 61.4709C10.8973 62.4079 9.37247 63.3768 7.66263 63.3768C6.39247 63.3768 5.25841 62.7971 4.41231 62.292C3.81903 61.9378 3.62528 61.1696 3.97935 60.5763C4.33341 59.9829 5.10138 59.7888 5.69513 60.1434C6.53044 60.6421 7.1556 60.8745 7.66247 60.8745C8.64435 60.8745 9.857 60.104 11.0297 59.3588C12.5059 58.4209 14.0325 57.4509 15.7456 57.4509C17.4559 57.4509 18.9822 58.4203 20.4581 59.3578C21.6322 60.1034 22.8461 60.8746 23.8287 60.8746C24.8137 60.8746 26.0276 60.1035 27.2018 59.3578C28.6778 58.4203 30.204 57.4509 31.9164 57.4509C33.6261 57.4509 35.1511 58.4198 36.6258 59.3568C37.8001 60.1029 39.0143 60.8745 39.9997 60.8745C40.9823 60.8745 42.1964 60.1034 43.3704 59.3576C44.8464 58.4201 46.3726 57.4507 48.0828 57.4507C49.7951 57.4507 51.3214 58.4201 52.7973 59.3576C53.9715 60.1034 55.1854 60.8745 56.1704 60.8745C57.1523 60.8745 58.365 60.104 59.5376 59.3588C61.0139 58.4207 62.5404 57.4507 64.2537 57.4507C65.9639 57.4507 67.4901 58.4201 68.9661 59.3576C70.1401 60.1032 71.354 60.8745 72.3367 60.8745C72.8436 60.8745 73.4687 60.6421 74.304 60.1434C74.8976 59.789 75.6657 59.9831 76.0201 60.5763ZM76.0201 66.826C76.3743 67.4193 76.1804 68.1874 75.5872 68.5417C74.7411 69.0467 73.607 69.6265 72.337 69.6265C70.6268 69.6265 69.1006 68.6571 67.6247 67.7196C66.4506 66.974 65.2367 66.2028 64.254 66.2028C63.2686 66.2028 62.0543 66.9743 60.88 67.7206C59.4053 68.6576 57.8806 69.6265 56.1708 69.6265C54.4583 69.6265 52.9318 68.6571 51.4559 67.7196C50.2818 66.974 49.0679 66.2028 48.0831 66.2028C47.1004 66.2028 45.8864 66.9739 44.7123 67.7196C43.2364 68.6571 41.7101 69.6265 40 69.6265C38.2868 69.6265 36.7604 68.6565 35.2839 67.7185C34.1112 66.9734 32.8986 66.2029 31.9167 66.2029C30.9318 66.2029 29.7179 66.974 28.5439 67.7198C27.0679 68.6573 25.5415 69.6267 23.829 69.6267C22.1189 69.6267 20.5926 68.6573 19.1167 67.7198C17.9426 66.974 16.7287 66.2029 15.7459 66.2029C14.7606 66.2029 13.5464 66.9745 12.3722 67.7206C10.8975 68.6576 9.37263 69.6265 7.66278 69.6265C6.39278 69.6265 5.25872 69.0468 4.41263 68.5417C3.81919 68.1874 3.62544 67.4193 3.97966 66.826C4.33372 66.2326 5.10185 66.0389 5.69528 66.3931C6.53091 66.8918 7.15606 67.1242 7.66278 67.1242C8.64466 67.1242 9.85732 66.3537 11.03 65.6085C12.5062 64.6706 14.0328 63.7006 15.7459 63.7006C17.4562 63.7006 18.9825 64.6699 20.4584 65.6074C21.6325 66.3531 22.8464 67.1243 23.829 67.1243C24.814 67.1243 26.0279 66.3532 27.2022 65.6074C28.6781 64.6699 30.2043 63.7006 31.9167 63.7006C33.6264 63.7006 35.1514 64.6695 36.6261 65.6065C37.8004 66.3526 39.0147 67.1242 40 67.1242C40.9826 67.1242 42.1967 66.3531 43.3708 65.6073C44.8467 64.6698 46.3729 63.7004 48.0831 63.7004C49.7954 63.7004 51.3217 64.6698 52.7976 65.6073C53.9718 66.3531 55.1858 67.1242 56.1708 67.1242C57.1526 67.1242 58.3653 66.3537 59.5379 65.6085C61.0142 64.6704 62.5408 63.7004 64.254 63.7004C65.9642 63.7004 67.4904 64.6698 68.9664 65.6073C70.1404 66.3529 71.3543 67.1242 72.337 67.1242C72.8437 67.1242 73.4689 66.8918 74.3045 66.3931C74.8984 66.0387 75.6664 66.2329 76.0201 66.826Z" fill="white"/>
</g>
<defs>
<clipPath id="clip0_96_399">
<rect width="80" height="80" fill="white"/>
</clipPath>
</defs>
</svg>
