<svg width="24" height="23" viewBox="0 0 24 23" fill="none" xmlns="http://www.w3.org/2000/svg">
<path fill-rule="evenodd" clip-rule="evenodd" d="M15.85 1.90152C16.481 1.90152 17.111 1.98615 17.71 2.17728C21.401 3.31835 22.731 7.16946 21.62 10.5356C20.99 12.2558 19.96 13.8257 18.611 15.1085C16.68 16.8866 14.561 18.4651 12.28 19.8249L12.03 19.9685L11.77 19.8154C9.48102 18.4651 7.35002 16.8866 5.40102 15.0989C4.06102 13.8162 3.03002 12.2558 2.39002 10.5356C1.26002 7.16946 2.59002 3.31835 6.32102 2.15731C6.61102 2.06222 6.91002 1.99566 7.21002 1.95857H7.33002C7.61102 1.91959 7.89002 1.90152 8.17002 1.90152H8.28002C8.91002 1.91959 9.52002 2.02418 10.111 2.21531H10.17C10.21 2.23338 10.24 2.25335 10.26 2.27142C10.481 2.33893 10.69 2.415 10.89 2.5196L11.27 2.68125C11.3618 2.72782 11.4649 2.79897 11.554 2.86046C11.6104 2.89943 11.6612 2.93451 11.7 2.95701C11.7163 2.96616 11.7329 2.97537 11.7496 2.98465C11.8354 3.03224 11.9247 3.08182 12 3.13673C13.111 2.32942 14.46 1.89201 15.85 1.90152ZM18.51 8.74794C18.92 8.73748 19.27 8.42463 19.3 8.02431V7.91115C19.33 6.57895 18.481 5.37227 17.19 4.90634C16.78 4.77226 16.33 4.98241 16.18 5.38178C16.04 5.78116 16.26 6.21857 16.68 6.36025C17.321 6.58846 17.75 7.18848 17.75 7.85315V7.88263C17.731 8.10038 17.8 8.31053 17.94 8.47218C18.08 8.63383 18.29 8.72797 18.51 8.74794Z" fill="#E3472B"/>
</svg>
