<svg width="16" height="17" viewBox="0 0 16 17" fill="none" xmlns="http://www.w3.org/2000/svg">
<path fill-rule="evenodd" clip-rule="evenodd" d="M11.9576 11.378L15.8041 15.0356C16.0653 15.2809 16.0653 15.6845 15.8041 15.9298C15.5429 16.1782 15.1216 16.1782 14.8604 15.9298L11.0139 12.2753C9.85143 13.1819 8.36571 13.7253 6.74286 13.7253C3.01714 13.7253 0 10.8532 0 7.31358C0 3.77394 3.01714 0.901855 6.74286 0.901855C10.4653 0.901855 13.4857 3.77394 13.4857 7.31358C13.4857 8.85674 12.911 10.2726 11.9576 11.378ZM1.33887 7.31363C1.33887 10.1454 3.76172 12.4492 6.74295 12.4492C9.72091 12.4492 12.147 10.1454 12.147 7.31363C12.147 4.48192 9.72091 2.17494 6.74295 2.17494C3.76172 2.17494 1.33887 4.48192 1.33887 7.31363Z" fill="#696969"/>
</svg>
