<svg width="14" height="10" viewBox="0 0 14 10" fill="none" xmlns="http://www.w3.org/2000/svg">
<path d="M7.54628 8.88901L13.7763 2.65884C13.9206 2.51474 14 2.32238 14 2.11728C14 1.91217 13.9206 1.71982 13.7763 1.57572L13.3176 1.11691C13.0188 0.818362 12.533 0.818362 12.2345 1.11691L7.0029 6.34855L1.76547 1.11111C1.62126 0.967011 1.42901 0.887451 1.22402 0.887451C1.0188 0.887451 0.826562 0.967011 0.682239 1.11111L0.223657 1.56992C0.0794468 1.71413 -4.45384e-08 1.90637 -5.35037e-08 2.11147C-6.24691e-08 2.31658 0.0794467 2.50893 0.223657 2.65303L6.45941 8.88901C6.60408 9.03345 6.79723 9.11278 7.00256 9.11233C7.20869 9.11278 7.40173 9.03345 7.54628 8.88901Z" fill="#696969"/>
</svg>
