<svg width="20" height="19"  viewBox="0 0 20 19" fill="red" xmlns="http://www.w3.org/2000/svg">
<path fill-rule="evenodd" clip-rule="evenodd" d="M13.85 0.901885C14.481 0.901885 15.111 0.986515 15.71 1.17764C19.401 2.31871 20.731 6.16983 19.62 9.53598C18.99 11.2561 17.96 12.8261 16.611 14.1088C14.68 15.887 12.561 17.4655 10.28 18.8252L10.03 18.9688L9.77002 18.8157C7.48102 17.4655 5.35002 15.887 3.40102 14.0993C2.06102 12.8166 1.03002 11.2561 0.390017 9.53598C-0.739983 6.16983 0.590017 2.31871 4.32102 1.15768C4.61102 1.06259 4.91002 0.996023 5.21002 0.958939H5.33002C5.61102 0.919952 5.89002 0.901885 6.17002 0.901885H6.28002C6.91002 0.919952 7.52002 1.02455 8.11102 1.21568H8.17002C8.21002 1.23375 8.24002 1.25372 8.26002 1.27178C8.48102 1.3393 8.69002 1.41537 8.89002 1.51996L9.27002 1.68162C9.36184 1.72818 9.4649 1.79934 9.55398 1.86083C9.61041 1.89979 9.66123 1.93488 9.70002 1.95737C9.71633 1.96653 9.73292 1.97573 9.74964 1.98501C9.83538 2.03261 9.9247 2.08219 10 2.13709C11.111 1.32979 12.46 0.892376 13.85 0.901885ZM16.51 7.7483C16.92 7.73784 17.27 7.425 17.3 7.02468V6.91152C17.33 5.57932 16.481 4.37264 15.19 3.9067C14.78 3.77263 14.33 3.98277 14.18 4.38215C14.04 4.78152 14.26 5.21893 14.68 5.36062C15.321 5.58883 15.75 6.18884 15.75 6.85352V6.88299C15.731 7.10075 15.8 7.31089 15.94 7.47255C16.08 7.6342 16.29 7.72834 16.51 7.7483Z" fill="#CCCCCC"/>
</svg>
