<svg width="24" height="26" viewBox="0 0 24 26" fill="none" xmlns="http://www.w3.org/2000/svg">
<path fill-rule="evenodd" clip-rule="evenodd" d="M0.666748 10.8398C0.666748 5.11548 5.79192 0.48877 11.9913 0.48877C18.2082 0.48877 23.3334 5.11548 23.3334 10.8398C23.3334 13.7243 22.2094 16.4023 20.3594 18.6721C18.3185 21.1758 15.803 23.3573 12.9715 25.0696C12.3234 25.4653 11.7386 25.4952 11.0273 25.0696C8.17973 23.3573 5.6642 21.1758 3.64075 18.6721C1.78939 16.4023 0.666748 13.7243 0.666748 10.8398ZM8.25905 11.1621C8.25905 13.0797 9.93563 14.5879 11.9913 14.5879C14.0484 14.5879 15.7411 13.0797 15.7411 11.1621C15.7411 9.25936 14.0484 7.67772 11.9913 7.67772C9.93563 7.67772 8.25905 9.25936 8.25905 11.1621Z" fill="white"/>
</svg>
