<svg width="24" height="24" viewBox="0 0 24 24" fill="none" xmlns="http://www.w3.org/2000/svg">
<path fill-rule="evenodd" clip-rule="evenodd" d="M11.754 2.625C6.57903 2.625 2.37903 6.8265 2.37903 12C2.37903 15.1695 3.95403 17.973 6.36453 19.6695C6.87153 20.028 7.57353 19.905 7.93203 19.398C8.28903 18.8895 8.16753 18.1875 7.65903 17.8305C5.82753 16.5405 4.62903 14.409 4.62903 12C4.62903 8.067 7.82103 4.875 11.754 4.875C12.375 4.875 12.879 4.371 12.879 3.75C12.879 3.129 12.375 2.625 11.754 2.625Z" fill="black"/>
<path fill-rule="evenodd" clip-rule="evenodd" d="M12.3571 21.3557C17.2501 21.0437 21.1291 16.9712 21.1291 12.0002C21.1291 9.14419 19.8481 6.58369 17.8306 4.86319C17.3581 4.46119 16.6471 4.51669 16.2451 4.98919C15.8416 5.46169 15.8986 6.17269 16.3711 6.57619C17.9056 7.88269 18.8791 9.82819 18.8791 12.0002C18.8791 15.7787 15.9316 18.8732 12.2131 19.1102C11.5936 19.1507 11.1226 19.6847 11.1631 20.3042C11.2021 20.9252 11.7376 21.3962 12.3571 21.3557Z" fill="black"/>
<path fill-rule="evenodd" clip-rule="evenodd" d="M20.496 4.125H16.254C15.633 4.125 15.129 4.629 15.129 5.25V9.492C15.129 10.113 15.633 10.617 16.254 10.617C16.875 10.617 17.379 10.113 17.379 9.492V6.375H20.496C21.117 6.375 21.621 5.871 21.621 5.25C21.621 4.629 21.117 4.125 20.496 4.125Z" fill="black"/>
<path fill-rule="evenodd" clip-rule="evenodd" d="M3.50403 20.6248H7.74603C8.36703 20.6248 8.87103 20.1208 8.87103 19.4998V15.2578C8.87103 14.6368 8.36703 14.1328 7.74603 14.1328C7.12503 14.1328 6.62103 14.6368 6.62103 15.2578V18.3748H3.50403C2.88303 18.3748 2.37903 18.8788 2.37903 19.4998C2.37903 20.1208 2.88303 20.6248 3.50403 20.6248Z" fill="black"/>
</svg>
