<svg width="20" height="20" viewBox="0 0 20 20" fill="none" xmlns="http://www.w3.org/2000/svg">
<path fill-rule="evenodd" clip-rule="evenodd" d="M14.9469 13.0951L19.7551 17.6672C20.0816 17.9738 20.0816 18.4783 19.7551 18.785C19.4286 19.0955 18.902 19.0955 18.5755 18.785L13.7673 14.2168C12.3143 15.3501 10.4571 16.0293 8.42857 16.0293C3.77143 16.0293 0 12.4392 0 8.01466C0 3.5901 3.77143 0 8.42857 0C13.0816 0 16.8571 3.5901 16.8571 8.01466C16.8571 9.94361 16.1388 11.7134 14.9469 13.0951ZM1.67358 8.01466C1.67358 11.5543 4.70216 14.4341 8.42869 14.4341C12.1511 14.4341 15.1838 11.5543 15.1838 8.01466C15.1838 4.47501 12.1511 1.59129 8.42869 1.59129C4.70216 1.59129 1.67358 4.47501 1.67358 8.01466Z" fill="white"/>
</svg>
