<svg width="24" height="26" viewBox="0 0 24 26" fill="none" xmlns="http://www.w3.org/2000/svg">
<path d="M23.8843 18.7204L22.8592 10.8664C22.2346 8.06394 20.467 6.91064 18.7819 6.91064H5.24228C3.53362 6.91064 1.70713 7.98321 1.17685 10.8664L0.139873 18.7204C-0.708565 24.4869 2.41416 25.9285 6.49137 25.9285H17.5446C21.6101 25.9285 24.6385 23.841 23.8843 18.7204Z" fill="#130F26"/>
<path opacity="0.4" d="M18.6315 6.62468C18.6357 6.72303 18.6158 6.82095 18.5734 6.91081H16.6573C16.6202 6.81945 16.6005 6.72257 16.5992 6.62468C16.5992 4.19357 14.5195 2.22277 11.954 2.22277C9.38853 2.22277 7.30879 4.19357 7.30879 6.62468C7.32637 6.71933 7.32637 6.81616 7.30879 6.91081H5.34619C5.32861 6.81616 5.32861 6.71933 5.34619 6.62468C5.4953 3.24152 8.433 0.571533 12.0063 0.571533C15.5795 0.571533 18.5172 3.24152 18.6663 6.62468H18.6315Z" fill="#130F26"/>
<path d="M8.12956 13.4384C7.47875 13.4384 6.95117 12.9221 6.95117 12.2851C6.95117 11.6482 7.47875 11.1318 8.12956 11.1318C8.78036 11.1318 9.30794 11.6482 9.30794 12.2851V12.2851C9.30794 12.9221 8.78036 13.4384 8.12956 13.4384Z" fill="#130F26"/>
<path d="M15.8473 13.4384C15.1965 13.4384 14.6689 12.9221 14.6689 12.2851C14.6689 11.6482 15.1965 11.1318 15.8473 11.1318C16.4981 11.1318 17.0257 11.6482 17.0257 12.2851C17.0257 12.9221 16.4981 13.4384 15.8473 13.4384Z" fill="#130F26"/>
<path d="M8.51139 13.6547C7.86059 13.6547 7.33301 13.1384 7.33301 12.5014C7.33301 11.8645 7.86059 11.3481 8.51139 11.3481C9.1622 11.3481 9.68978 11.8645 9.68978 12.5014C9.68978 13.1384 9.1622 13.6547 8.51139 13.6547Z" fill="white"/>
<path d="M16.2292 13.6547C15.5784 13.6547 15.0508 13.1384 15.0508 12.5014C15.0508 11.8645 15.5784 11.3481 16.2292 11.3481C16.88 11.3481 17.4075 11.8645 17.4075 12.5014C17.4075 13.1384 16.88 13.6547 16.2292 13.6547Z" fill="white"/>
</svg>
