<svg width="28" height="26" viewBox="0 0 28 26" fill="none" xmlns="http://www.w3.org/2000/svg">
<path fill-rule="evenodd" clip-rule="evenodd" d="M16.8285 12.0414H20.5189C21.0785 12.0414 21.5182 11.6077 21.5182 11.0847C21.5182 10.5489 21.0785 10.1279 20.5189 10.1279H16.8285C16.2689 10.1279 15.8293 10.5489 15.8293 11.0847C15.8293 11.6077 16.2689 12.0414 16.8285 12.0414ZM24.9022 5.40937C25.7149 5.40937 26.2478 5.67725 26.7807 6.26404C27.3136 6.85084 27.4069 7.69276 27.287 8.45686L26.0213 16.825C25.7815 18.4336 24.3426 19.6187 22.6506 19.6187H8.11527C6.34331 19.6187 4.87779 18.3188 4.73124 16.635L3.50553 2.72925L1.49376 2.39759C0.960842 2.30829 0.587799 1.8108 0.68106 1.30054C0.77432 0.778806 1.29392 0.433109 1.84016 0.510923L5.01768 0.968876C5.47066 1.04669 5.80373 1.40259 5.8437 1.83631L6.09684 4.69373C6.13681 5.10321 6.4832 5.40937 6.90954 5.40937H24.9022ZM7.90183 21.6348C6.7827 21.6348 5.87674 22.5023 5.87674 23.5738C5.87674 24.6326 6.7827 25.5 7.90183 25.5C9.00764 25.5 9.9136 24.6326 9.9136 23.5738C9.9136 22.5023 9.00764 21.6348 7.90183 21.6348ZM22.8902 21.6348C21.771 21.6348 20.8651 22.5023 20.8651 23.5738C20.8651 24.6326 21.771 25.5 22.8902 25.5C23.996 25.5 24.9019 24.6326 24.9019 23.5738C24.9019 22.5023 23.996 21.6348 22.8902 21.6348Z" fill="white"/>
</svg>
