<svg width="13" height="13" viewBox="0 0 13 13" fill="none" xmlns="http://www.w3.org/2000/svg">
<path d="M7.46764 6.5L12.7996 1.16802C13.0668 0.900809 13.0668 0.467594 12.7996 0.200408C12.5324 -0.0668028 12.0992 -0.0668028 11.832 0.200408L6.49998 5.53239L1.16802 0.200408C0.900806 -0.0668028 0.467593 -0.0668028 0.200408 0.200408C-0.0667772 0.467619 -0.0668026 0.900835 0.200408 1.16802L5.53238 6.5L0.200408 11.832C-0.0668026 12.0992 -0.0668026 12.5324 0.200408 12.7996C0.467618 13.0668 0.900832 13.0668 1.16802 12.7996L6.49998 7.46762L11.8319 12.7996C12.0991 13.0668 12.5324 13.0668 12.7996 12.7996C13.0667 12.5324 13.0667 12.0992 12.7996 11.832L7.46764 6.5Z" fill="#A7A7A7"/>
</svg>
