<svg width="33" height="45" viewBox="0 0 33 45" fill="none" xmlns="http://www.w3.org/2000/svg">
<path fill-rule="evenodd" clip-rule="evenodd" d="M32.5 16.75C32.5 17.0623 32.4917 17.3725 32.4753 17.6806H32.5C32.4875 17.7658 32.474 17.853 32.4595 17.9423C32.2851 20.4977 31.5546 22.895 30.392 25.0063C28.0525 30.9169 23.6616 38.5056 16.25 44.6667C11.1343 40.6343 0.722222 29.5917 0 17.6806H0.0246543C0.00828959 17.3725 0 17.0623 0 16.75C0 7.49923 7.27537 0 16.25 0C25.2246 0 32.5 7.49923 32.5 16.75ZM16.5 25.3333C21.4706 25.3333 25.5 21.3039 25.5 16.3333C25.5 11.3628 21.4706 7.33331 16.5 7.33331C11.5294 7.33331 7.5 11.3628 7.5 16.3333C7.5 21.3039 11.5294 25.3333 16.5 25.3333Z" fill="#1A1B68"/>
</svg>
